G04 #@! TF.GenerationSoftware,KiCad,Pcbnew,5.1.4-e60b266~84~ubuntu18.04.1*
G04 #@! TF.CreationDate,2019-10-17T23:26:37-03:00*
G04 #@! TF.ProjectId,DCI_TP_Final_GG,4443495f-5450-45f4-9669-6e616c5f4747,Matias Brignone*
G04 #@! TF.SameCoordinates,Original*
G04 #@! TF.FileFunction,Copper,L2,Bot*
G04 #@! TF.FilePolarity,Positive*
%FSLAX46Y46*%
G04 Gerber Fmt 4.6, Leading zero omitted, Abs format (unit mm)*
G04 Created by KiCad (PCBNEW 5.1.4-e60b266~84~ubuntu18.04.1) date 2019-10-17 23:26:37*
%MOMM*%
%LPD*%
G04 APERTURE LIST*
%ADD10C,0.300000*%
%ADD11C,2.600000*%
%ADD12R,2.600000X2.600000*%
%ADD13O,1.700000X1.700000*%
%ADD14R,1.700000X1.700000*%
%ADD15C,1.800000*%
%ADD16R,1.800000X1.800000*%
%ADD17C,1.600000*%
%ADD18R,1.600000X1.600000*%
%ADD19C,1.500000*%
%ADD20C,1.300000*%
%ADD21C,2.000000*%
%ADD22C,1.270000*%
%ADD23C,0.500000*%
%ADD24C,0.750000*%
%ADD25C,1.000000*%
%ADD26C,0.254000*%
G04 APERTURE END LIST*
D10*
X133357142Y-134178571D02*
X132857142Y-135678571D01*
X132357142Y-134178571D01*
X131071428Y-135678571D02*
X131928571Y-135678571D01*
X131500000Y-135678571D02*
X131500000Y-134178571D01*
X131642857Y-134392857D01*
X131785714Y-134535714D01*
X131928571Y-134607142D01*
X130142857Y-134178571D02*
X130000000Y-134178571D01*
X129857142Y-134250000D01*
X129785714Y-134321428D01*
X129714285Y-134464285D01*
X129642857Y-134750000D01*
X129642857Y-135107142D01*
X129714285Y-135392857D01*
X129785714Y-135535714D01*
X129857142Y-135607142D01*
X130000000Y-135678571D01*
X130142857Y-135678571D01*
X130285714Y-135607142D01*
X130357142Y-135535714D01*
X130428571Y-135392857D01*
X130500000Y-135107142D01*
X130500000Y-134750000D01*
X130428571Y-134464285D01*
X130357142Y-134321428D01*
X130285714Y-134250000D01*
X130142857Y-134178571D01*
X128214285Y-135678571D02*
X129071428Y-135678571D01*
X128642857Y-135678571D02*
X128642857Y-134178571D01*
X128785714Y-134392857D01*
X128928571Y-134535714D01*
X129071428Y-134607142D01*
X127500000Y-135678571D02*
X127214285Y-135678571D01*
X127071428Y-135607142D01*
X127000000Y-135535714D01*
X126857142Y-135321428D01*
X126785714Y-135035714D01*
X126785714Y-134464285D01*
X126857142Y-134321428D01*
X126928571Y-134250000D01*
X127071428Y-134178571D01*
X127357142Y-134178571D01*
X127500000Y-134250000D01*
X127571428Y-134321428D01*
X127642857Y-134464285D01*
X127642857Y-134821428D01*
X127571428Y-134964285D01*
X127500000Y-135035714D01*
X127357142Y-135107142D01*
X127071428Y-135107142D01*
X126928571Y-135035714D01*
X126857142Y-134964285D01*
X126785714Y-134821428D01*
D11*
X143000000Y-108000000D03*
X143000000Y-113000000D03*
X143000000Y-118000000D03*
D12*
X143000000Y-123000000D03*
D11*
X143000000Y-93000000D03*
D12*
X143000000Y-98000000D03*
D13*
X111000000Y-95540000D03*
D14*
X111000000Y-93000000D03*
D13*
X111000000Y-128860000D03*
X111000000Y-126320000D03*
X111000000Y-123780000D03*
X111000000Y-121240000D03*
X111000000Y-118700000D03*
X111000000Y-116160000D03*
X111000000Y-113620000D03*
X111000000Y-111080000D03*
X111000000Y-108540000D03*
D14*
X111000000Y-106000000D03*
D13*
X111000000Y-85000000D03*
X111000000Y-82460000D03*
X111000000Y-79920000D03*
X111000000Y-77380000D03*
X111000000Y-74840000D03*
X111000000Y-72300000D03*
X111000000Y-69760000D03*
X111000000Y-67220000D03*
X111000000Y-64680000D03*
D14*
X111000000Y-62140000D03*
D11*
X143000000Y-67500000D03*
X143000000Y-72500000D03*
X143000000Y-77500000D03*
D12*
X143000000Y-82500000D03*
D15*
X113000000Y-100000000D03*
D16*
X110460000Y-100000000D03*
D17*
X132500000Y-92000000D03*
D18*
X132500000Y-90000000D03*
D17*
X125500000Y-102500000D03*
D18*
X127500000Y-102500000D03*
D19*
X135000000Y-104000000D03*
D20*
X113500000Y-120500000D03*
D19*
X131375000Y-116125000D03*
D21*
X124690000Y-116510000D03*
D19*
X114250000Y-115500000D03*
X134500000Y-122000000D03*
X115000000Y-107000000D03*
X127500000Y-74000000D03*
X123250000Y-74000000D03*
X113500000Y-77500000D03*
X111750000Y-89250000D03*
X136250000Y-74750000D03*
X136250000Y-84000000D03*
X137750000Y-63750000D03*
X119250000Y-107250000D03*
X115000000Y-93000000D03*
X137000000Y-107500000D03*
X129500000Y-85500000D03*
X124500000Y-90000000D03*
X123250000Y-81000000D03*
X125500000Y-67500000D03*
X123400000Y-77200000D03*
X123000000Y-113000000D03*
X126250000Y-119000000D03*
X115000000Y-73000000D03*
X127500000Y-76500000D03*
X124250000Y-124750000D03*
X132500000Y-111940000D03*
X117250000Y-113750000D03*
X129500000Y-100000000D03*
X133000000Y-104000000D03*
X119000000Y-61500000D03*
X133000000Y-62000000D03*
X121500000Y-65500000D03*
D22*
X116500000Y-85500000D03*
D19*
X116250000Y-100500000D03*
X117000000Y-106500000D03*
X124500000Y-87500000D03*
X127750000Y-80000000D03*
X122625000Y-61875000D03*
X123500000Y-65000000D03*
D23*
X123250000Y-81000000D02*
X122250000Y-82000000D01*
X122250000Y-82000000D02*
X122250000Y-88750000D01*
X123500000Y-90000000D02*
X124500000Y-90000000D01*
X122250000Y-88750000D02*
X123500000Y-90000000D01*
X119250000Y-107250000D02*
X119250000Y-100250000D01*
X119500000Y-107500000D02*
X119250000Y-107250000D01*
D24*
X119250000Y-97250000D02*
X115000000Y-93000000D01*
X119250000Y-107250000D02*
X119250000Y-97250000D01*
D25*
X129500000Y-86000000D02*
X129500000Y-85500000D01*
X124500000Y-90000000D02*
X125500000Y-90000000D01*
X125500000Y-90000000D02*
X129500000Y-86000000D01*
D23*
X136000000Y-107500000D02*
X137000000Y-107500000D01*
X136000000Y-107500000D02*
X119500000Y-107500000D01*
X136500000Y-107500000D02*
X136000000Y-107500000D01*
D25*
X128000000Y-67500000D02*
X143000000Y-67500000D01*
X125500000Y-67500000D02*
X128000000Y-67500000D01*
X138500000Y-72500000D02*
X143000000Y-72500000D01*
X123400000Y-77200000D02*
X121700000Y-77200000D01*
X122000000Y-70500000D02*
X136500000Y-70500000D01*
X121700000Y-77200000D02*
X121000000Y-76500000D01*
X121000000Y-76500000D02*
X121000000Y-71500000D01*
X121000000Y-71500000D02*
X122000000Y-70500000D01*
X136500000Y-70500000D02*
X138500000Y-72500000D01*
X143000000Y-108000000D02*
X141500000Y-108000000D01*
X141500000Y-108000000D02*
X135500000Y-114000000D01*
X124000000Y-114000000D02*
X124500000Y-114000000D01*
X123000000Y-113000000D02*
X124000000Y-114000000D01*
X135500000Y-114000000D02*
X124500000Y-114000000D01*
X138000000Y-117750000D02*
X138000000Y-114750000D01*
X138000000Y-114750000D02*
X139750000Y-113000000D01*
X139750000Y-113000000D02*
X143000000Y-113000000D01*
X136750000Y-119000000D02*
X137125000Y-118625000D01*
X126250000Y-119000000D02*
X136750000Y-119000000D01*
X137125000Y-118625000D02*
X138000000Y-117750000D01*
D23*
X119601975Y-79250000D02*
X124000000Y-79250000D01*
X124000000Y-79250000D02*
X126750000Y-76500000D01*
X126750000Y-76500000D02*
X127500000Y-76500000D01*
X115000000Y-74648025D02*
X119601975Y-79250000D01*
X115000000Y-73000000D02*
X115000000Y-74648025D01*
X112202081Y-116160000D02*
X115250000Y-119207919D01*
X111000000Y-116160000D02*
X112202081Y-116160000D01*
X115250000Y-119207919D02*
X115250000Y-120250000D01*
X124250000Y-124750000D02*
X116250000Y-124750000D01*
X115250000Y-123750000D02*
X115250000Y-120250000D01*
X116250000Y-124750000D02*
X115250000Y-123750000D01*
X119694999Y-111305001D02*
X117884999Y-113115001D01*
X117884999Y-113115001D02*
X117250000Y-113750000D01*
X130865001Y-111305001D02*
X119694999Y-111305001D01*
X131500000Y-111940000D02*
X130865001Y-111305001D01*
X132500000Y-111940000D02*
X131500000Y-111940000D01*
X130500000Y-100000000D02*
X129500000Y-100000000D01*
X133000000Y-104000000D02*
X133000000Y-102500000D01*
X133000000Y-102500000D02*
X130500000Y-100000000D01*
X119000000Y-61500000D02*
X120500000Y-60000000D01*
X120500000Y-60000000D02*
X131000000Y-60000000D01*
X131000000Y-60000000D02*
X133000000Y-62000000D01*
X114792002Y-65500000D02*
X113250000Y-67042002D01*
X121500000Y-65500000D02*
X114792002Y-65500000D01*
X116500000Y-78246198D02*
X116500000Y-85500000D01*
X113250000Y-74996198D02*
X116500000Y-78246198D01*
X113250000Y-67042002D02*
X113250000Y-74996198D01*
X117000000Y-106500000D02*
X116250000Y-105750000D01*
X116250000Y-100500000D02*
X116250000Y-105750000D01*
X124500000Y-87500000D02*
X126500000Y-85500000D01*
X126500000Y-85500000D02*
X126500000Y-81250000D01*
X127750000Y-80000000D02*
X126500000Y-81250000D01*
X122625000Y-61875000D02*
X122625000Y-64125000D01*
X122625000Y-64125000D02*
X123500000Y-65000000D01*
D26*
G36*
X147840000Y-133373000D02*
G01*
X134285000Y-133373000D01*
X134285000Y-133210000D01*
X125715000Y-133210000D01*
X125715000Y-133373000D01*
X107160000Y-133373000D01*
X107160000Y-108540000D01*
X109507815Y-108540000D01*
X109536487Y-108831111D01*
X109621401Y-109111034D01*
X109759294Y-109369014D01*
X109944866Y-109595134D01*
X110170986Y-109780706D01*
X110225791Y-109810000D01*
X110170986Y-109839294D01*
X109944866Y-110024866D01*
X109759294Y-110250986D01*
X109621401Y-110508966D01*
X109536487Y-110788889D01*
X109507815Y-111080000D01*
X109536487Y-111371111D01*
X109621401Y-111651034D01*
X109759294Y-111909014D01*
X109944866Y-112135134D01*
X110170986Y-112320706D01*
X110225791Y-112350000D01*
X110170986Y-112379294D01*
X109944866Y-112564866D01*
X109759294Y-112790986D01*
X109621401Y-113048966D01*
X109536487Y-113328889D01*
X109507815Y-113620000D01*
X109536487Y-113911111D01*
X109621401Y-114191034D01*
X109759294Y-114449014D01*
X109944866Y-114675134D01*
X110170986Y-114860706D01*
X110225791Y-114890000D01*
X110170986Y-114919294D01*
X109944866Y-115104866D01*
X109759294Y-115330986D01*
X109621401Y-115588966D01*
X109536487Y-115868889D01*
X109507815Y-116160000D01*
X109536487Y-116451111D01*
X109621401Y-116731034D01*
X109759294Y-116989014D01*
X109944866Y-117215134D01*
X110170986Y-117400706D01*
X110225791Y-117430000D01*
X110170986Y-117459294D01*
X109944866Y-117644866D01*
X109759294Y-117870986D01*
X109621401Y-118128966D01*
X109536487Y-118408889D01*
X109507815Y-118700000D01*
X109536487Y-118991111D01*
X109621401Y-119271034D01*
X109759294Y-119529014D01*
X109944866Y-119755134D01*
X110170986Y-119940706D01*
X110225791Y-119970000D01*
X110170986Y-119999294D01*
X109944866Y-120184866D01*
X109759294Y-120410986D01*
X109621401Y-120668966D01*
X109536487Y-120948889D01*
X109507815Y-121240000D01*
X109536487Y-121531111D01*
X109621401Y-121811034D01*
X109759294Y-122069014D01*
X109944866Y-122295134D01*
X110170986Y-122480706D01*
X110225791Y-122510000D01*
X110170986Y-122539294D01*
X109944866Y-122724866D01*
X109759294Y-122950986D01*
X109621401Y-123208966D01*
X109536487Y-123488889D01*
X109507815Y-123780000D01*
X109536487Y-124071111D01*
X109621401Y-124351034D01*
X109759294Y-124609014D01*
X109944866Y-124835134D01*
X110170986Y-125020706D01*
X110225791Y-125050000D01*
X110170986Y-125079294D01*
X109944866Y-125264866D01*
X109759294Y-125490986D01*
X109621401Y-125748966D01*
X109536487Y-126028889D01*
X109507815Y-126320000D01*
X109536487Y-126611111D01*
X109621401Y-126891034D01*
X109759294Y-127149014D01*
X109944866Y-127375134D01*
X110170986Y-127560706D01*
X110225791Y-127590000D01*
X110170986Y-127619294D01*
X109944866Y-127804866D01*
X109759294Y-128030986D01*
X109621401Y-128288966D01*
X109536487Y-128568889D01*
X109507815Y-128860000D01*
X109536487Y-129151111D01*
X109621401Y-129431034D01*
X109759294Y-129689014D01*
X109944866Y-129915134D01*
X110170986Y-130100706D01*
X110428966Y-130238599D01*
X110708889Y-130323513D01*
X110927050Y-130345000D01*
X111072950Y-130345000D01*
X111291111Y-130323513D01*
X111571034Y-130238599D01*
X111829014Y-130100706D01*
X112055134Y-129915134D01*
X112240706Y-129689014D01*
X112378599Y-129431034D01*
X112463513Y-129151111D01*
X112492185Y-128860000D01*
X112463513Y-128568889D01*
X112378599Y-128288966D01*
X112240706Y-128030986D01*
X112055134Y-127804866D01*
X111829014Y-127619294D01*
X111774209Y-127590000D01*
X111829014Y-127560706D01*
X112055134Y-127375134D01*
X112240706Y-127149014D01*
X112378599Y-126891034D01*
X112463513Y-126611111D01*
X112492185Y-126320000D01*
X112463513Y-126028889D01*
X112378599Y-125748966D01*
X112240706Y-125490986D01*
X112055134Y-125264866D01*
X111829014Y-125079294D01*
X111774209Y-125050000D01*
X111829014Y-125020706D01*
X112055134Y-124835134D01*
X112240706Y-124609014D01*
X112378599Y-124351034D01*
X112463513Y-124071111D01*
X112492185Y-123780000D01*
X112463513Y-123488889D01*
X112378599Y-123208966D01*
X112240706Y-122950986D01*
X112055134Y-122724866D01*
X111829014Y-122539294D01*
X111774209Y-122510000D01*
X111829014Y-122480706D01*
X112055134Y-122295134D01*
X112240706Y-122069014D01*
X112378599Y-121811034D01*
X112463513Y-121531111D01*
X112492185Y-121240000D01*
X112463513Y-120948889D01*
X112378599Y-120668966D01*
X112240706Y-120410986D01*
X112055134Y-120184866D01*
X111829014Y-119999294D01*
X111774209Y-119970000D01*
X111829014Y-119940706D01*
X112055134Y-119755134D01*
X112240706Y-119529014D01*
X112378599Y-119271034D01*
X112463513Y-118991111D01*
X112492185Y-118700000D01*
X112463513Y-118408889D01*
X112378599Y-118128966D01*
X112240706Y-117870986D01*
X112055134Y-117644866D01*
X111829014Y-117459294D01*
X111774209Y-117430000D01*
X111829014Y-117400706D01*
X112027948Y-117237445D01*
X114365000Y-119574498D01*
X114365001Y-120206523D01*
X114365000Y-123706531D01*
X114360719Y-123750000D01*
X114365000Y-123793469D01*
X114365000Y-123793476D01*
X114377805Y-123923489D01*
X114428411Y-124090312D01*
X114510589Y-124244058D01*
X114621183Y-124378817D01*
X114654956Y-124406534D01*
X115593470Y-125345049D01*
X115621183Y-125378817D01*
X115654951Y-125406530D01*
X115654953Y-125406532D01*
X115755941Y-125489411D01*
X115909686Y-125571589D01*
X116076510Y-125622195D01*
X116206523Y-125635000D01*
X116206531Y-125635000D01*
X116250000Y-125639281D01*
X116293469Y-125635000D01*
X123176315Y-125635000D01*
X123367114Y-125825799D01*
X123593957Y-125977371D01*
X123846011Y-126081775D01*
X124113589Y-126135000D01*
X124386411Y-126135000D01*
X124653989Y-126081775D01*
X124906043Y-125977371D01*
X125132886Y-125825799D01*
X125325799Y-125632886D01*
X125477371Y-125406043D01*
X125581775Y-125153989D01*
X125635000Y-124886411D01*
X125635000Y-124613589D01*
X125581775Y-124346011D01*
X125477371Y-124093957D01*
X125325799Y-123867114D01*
X125132886Y-123674201D01*
X124906043Y-123522629D01*
X124653989Y-123418225D01*
X124386411Y-123365000D01*
X124113589Y-123365000D01*
X123846011Y-123418225D01*
X123593957Y-123522629D01*
X123367114Y-123674201D01*
X123176315Y-123865000D01*
X116616579Y-123865000D01*
X116135000Y-123383422D01*
X116135000Y-121700000D01*
X141061928Y-121700000D01*
X141061928Y-124300000D01*
X141074188Y-124424482D01*
X141110498Y-124544180D01*
X141169463Y-124654494D01*
X141248815Y-124751185D01*
X141345506Y-124830537D01*
X141455820Y-124889502D01*
X141575518Y-124925812D01*
X141700000Y-124938072D01*
X144300000Y-124938072D01*
X144424482Y-124925812D01*
X144544180Y-124889502D01*
X144654494Y-124830537D01*
X144751185Y-124751185D01*
X144830537Y-124654494D01*
X144889502Y-124544180D01*
X144925812Y-124424482D01*
X144938072Y-124300000D01*
X144938072Y-121700000D01*
X144925812Y-121575518D01*
X144889502Y-121455820D01*
X144830537Y-121345506D01*
X144751185Y-121248815D01*
X144654494Y-121169463D01*
X144544180Y-121110498D01*
X144424482Y-121074188D01*
X144300000Y-121061928D01*
X141700000Y-121061928D01*
X141575518Y-121074188D01*
X141455820Y-121110498D01*
X141345506Y-121169463D01*
X141248815Y-121248815D01*
X141169463Y-121345506D01*
X141110498Y-121455820D01*
X141074188Y-121575518D01*
X141061928Y-121700000D01*
X116135000Y-121700000D01*
X116135000Y-119251384D01*
X116139281Y-119207918D01*
X116135000Y-119164452D01*
X116135000Y-119164442D01*
X116122195Y-119034429D01*
X116071589Y-118867606D01*
X116069442Y-118863589D01*
X124865000Y-118863589D01*
X124865000Y-119136411D01*
X124918225Y-119403989D01*
X125022629Y-119656043D01*
X125174201Y-119882886D01*
X125367114Y-120075799D01*
X125593957Y-120227371D01*
X125846011Y-120331775D01*
X126113589Y-120385000D01*
X126386411Y-120385000D01*
X126653989Y-120331775D01*
X126906043Y-120227371D01*
X127044286Y-120135000D01*
X136694249Y-120135000D01*
X136750000Y-120140491D01*
X136805751Y-120135000D01*
X136805752Y-120135000D01*
X136972499Y-120118577D01*
X137186447Y-120053676D01*
X137383623Y-119948284D01*
X137556449Y-119806449D01*
X137591996Y-119763135D01*
X137966988Y-119388143D01*
X138763140Y-118591992D01*
X138806449Y-118556449D01*
X138948284Y-118383623D01*
X139053676Y-118186447D01*
X139118577Y-117972499D01*
X139134638Y-117809419D01*
X141065000Y-117809419D01*
X141065000Y-118190581D01*
X141139361Y-118564419D01*
X141285225Y-118916566D01*
X141496987Y-119233491D01*
X141766509Y-119503013D01*
X142083434Y-119714775D01*
X142435581Y-119860639D01*
X142809419Y-119935000D01*
X143190581Y-119935000D01*
X143564419Y-119860639D01*
X143916566Y-119714775D01*
X144233491Y-119503013D01*
X144503013Y-119233491D01*
X144714775Y-118916566D01*
X144860639Y-118564419D01*
X144935000Y-118190581D01*
X144935000Y-117809419D01*
X144860639Y-117435581D01*
X144714775Y-117083434D01*
X144503013Y-116766509D01*
X144233491Y-116496987D01*
X143916566Y-116285225D01*
X143564419Y-116139361D01*
X143190581Y-116065000D01*
X142809419Y-116065000D01*
X142435581Y-116139361D01*
X142083434Y-116285225D01*
X141766509Y-116496987D01*
X141496987Y-116766509D01*
X141285225Y-117083434D01*
X141139361Y-117435581D01*
X141065000Y-117809419D01*
X139134638Y-117809419D01*
X139135000Y-117805752D01*
X139135000Y-117805751D01*
X139140491Y-117750000D01*
X139135000Y-117694248D01*
X139135000Y-115220131D01*
X140220133Y-114135000D01*
X141431178Y-114135000D01*
X141496987Y-114233491D01*
X141766509Y-114503013D01*
X142083434Y-114714775D01*
X142435581Y-114860639D01*
X142809419Y-114935000D01*
X143190581Y-114935000D01*
X143564419Y-114860639D01*
X143916566Y-114714775D01*
X144233491Y-114503013D01*
X144503013Y-114233491D01*
X144714775Y-113916566D01*
X144860639Y-113564419D01*
X144935000Y-113190581D01*
X144935000Y-112809419D01*
X144860639Y-112435581D01*
X144714775Y-112083434D01*
X144503013Y-111766509D01*
X144233491Y-111496987D01*
X143916566Y-111285225D01*
X143564419Y-111139361D01*
X143190581Y-111065000D01*
X142809419Y-111065000D01*
X142435581Y-111139361D01*
X142083434Y-111285225D01*
X141766509Y-111496987D01*
X141496987Y-111766509D01*
X141431178Y-111865000D01*
X139805752Y-111865000D01*
X139750000Y-111859509D01*
X139527501Y-111881423D01*
X139313553Y-111946324D01*
X139116377Y-112051716D01*
X138986856Y-112158011D01*
X138986855Y-112158012D01*
X138943551Y-112193551D01*
X138908013Y-112236854D01*
X137236860Y-113908009D01*
X137193552Y-113943551D01*
X137051717Y-114116377D01*
X137041763Y-114135000D01*
X136946324Y-114313554D01*
X136881423Y-114527502D01*
X136859509Y-114750000D01*
X136865001Y-114805761D01*
X136865000Y-117279868D01*
X136361857Y-117783012D01*
X136279869Y-117865000D01*
X127044286Y-117865000D01*
X126906043Y-117772629D01*
X126653989Y-117668225D01*
X126386411Y-117615000D01*
X126113589Y-117615000D01*
X125846011Y-117668225D01*
X125593957Y-117772629D01*
X125367114Y-117924201D01*
X125174201Y-118117114D01*
X125022629Y-118343957D01*
X124918225Y-118596011D01*
X124865000Y-118863589D01*
X116069442Y-118863589D01*
X115989411Y-118713860D01*
X115878817Y-118579102D01*
X115845050Y-118551390D01*
X112858615Y-115564956D01*
X112830898Y-115531183D01*
X112696140Y-115420589D01*
X112542394Y-115338411D01*
X112375571Y-115287805D01*
X112245558Y-115275000D01*
X112245550Y-115275000D01*
X112202081Y-115270719D01*
X112192056Y-115271706D01*
X112055134Y-115104866D01*
X111829014Y-114919294D01*
X111774209Y-114890000D01*
X111829014Y-114860706D01*
X112055134Y-114675134D01*
X112240706Y-114449014D01*
X112378599Y-114191034D01*
X112463513Y-113911111D01*
X112492185Y-113620000D01*
X112491554Y-113613589D01*
X115865000Y-113613589D01*
X115865000Y-113886411D01*
X115918225Y-114153989D01*
X116022629Y-114406043D01*
X116174201Y-114632886D01*
X116367114Y-114825799D01*
X116593957Y-114977371D01*
X116846011Y-115081775D01*
X117113589Y-115135000D01*
X117386411Y-115135000D01*
X117653989Y-115081775D01*
X117906043Y-114977371D01*
X118132886Y-114825799D01*
X118325799Y-114632886D01*
X118477371Y-114406043D01*
X118581775Y-114153989D01*
X118635000Y-113886411D01*
X118635000Y-113616578D01*
X120061578Y-112190001D01*
X121875499Y-112190001D01*
X121772629Y-112343957D01*
X121668225Y-112596011D01*
X121615000Y-112863589D01*
X121615000Y-113136411D01*
X121668225Y-113403989D01*
X121772629Y-113656043D01*
X121924201Y-113882886D01*
X122117114Y-114075799D01*
X122343957Y-114227371D01*
X122596011Y-114331775D01*
X122759079Y-114364212D01*
X123158013Y-114763145D01*
X123193551Y-114806449D01*
X123236854Y-114841987D01*
X123236856Y-114841989D01*
X123366377Y-114948284D01*
X123563553Y-115053676D01*
X123777501Y-115118577D01*
X124000000Y-115140491D01*
X124055752Y-115135000D01*
X135444249Y-115135000D01*
X135500000Y-115140491D01*
X135555751Y-115135000D01*
X135555752Y-115135000D01*
X135722499Y-115118577D01*
X135936447Y-115053676D01*
X136133623Y-114948284D01*
X136306449Y-114806449D01*
X136341996Y-114763135D01*
X141684314Y-109420818D01*
X141766509Y-109503013D01*
X142083434Y-109714775D01*
X142435581Y-109860639D01*
X142809419Y-109935000D01*
X143190581Y-109935000D01*
X143564419Y-109860639D01*
X143916566Y-109714775D01*
X144233491Y-109503013D01*
X144503013Y-109233491D01*
X144714775Y-108916566D01*
X144860639Y-108564419D01*
X144935000Y-108190581D01*
X144935000Y-107809419D01*
X144860639Y-107435581D01*
X144714775Y-107083434D01*
X144503013Y-106766509D01*
X144233491Y-106496987D01*
X143916566Y-106285225D01*
X143564419Y-106139361D01*
X143190581Y-106065000D01*
X142809419Y-106065000D01*
X142435581Y-106139361D01*
X142083434Y-106285225D01*
X141766509Y-106496987D01*
X141496987Y-106766509D01*
X141430257Y-106866378D01*
X141277501Y-106881423D01*
X141063553Y-106946324D01*
X140866377Y-107051716D01*
X140693551Y-107193551D01*
X140658009Y-107236859D01*
X135029869Y-112865000D01*
X133533685Y-112865000D01*
X133575799Y-112822886D01*
X133727371Y-112596043D01*
X133831775Y-112343989D01*
X133885000Y-112076411D01*
X133885000Y-111803589D01*
X133831775Y-111536011D01*
X133727371Y-111283957D01*
X133575799Y-111057114D01*
X133382886Y-110864201D01*
X133156043Y-110712629D01*
X132903989Y-110608225D01*
X132636411Y-110555000D01*
X132363589Y-110555000D01*
X132096011Y-110608225D01*
X131843957Y-110712629D01*
X131652281Y-110840703D01*
X131521535Y-110709957D01*
X131493818Y-110676184D01*
X131359060Y-110565590D01*
X131205314Y-110483412D01*
X131038491Y-110432806D01*
X130908478Y-110420001D01*
X130908470Y-110420001D01*
X130865001Y-110415720D01*
X130821532Y-110420001D01*
X119738468Y-110420001D01*
X119694999Y-110415720D01*
X119651530Y-110420001D01*
X119651522Y-110420001D01*
X119521509Y-110432806D01*
X119354685Y-110483412D01*
X119200940Y-110565590D01*
X119099952Y-110648469D01*
X119099950Y-110648471D01*
X119066182Y-110676184D01*
X119038469Y-110709952D01*
X117383422Y-112365000D01*
X117113589Y-112365000D01*
X116846011Y-112418225D01*
X116593957Y-112522629D01*
X116367114Y-112674201D01*
X116174201Y-112867114D01*
X116022629Y-113093957D01*
X115918225Y-113346011D01*
X115865000Y-113613589D01*
X112491554Y-113613589D01*
X112463513Y-113328889D01*
X112378599Y-113048966D01*
X112240706Y-112790986D01*
X112055134Y-112564866D01*
X111829014Y-112379294D01*
X111774209Y-112350000D01*
X111829014Y-112320706D01*
X112055134Y-112135134D01*
X112240706Y-111909014D01*
X112378599Y-111651034D01*
X112463513Y-111371111D01*
X112492185Y-111080000D01*
X112463513Y-110788889D01*
X112378599Y-110508966D01*
X112240706Y-110250986D01*
X112055134Y-110024866D01*
X111829014Y-109839294D01*
X111774209Y-109810000D01*
X111829014Y-109780706D01*
X112055134Y-109595134D01*
X112240706Y-109369014D01*
X112378599Y-109111034D01*
X112463513Y-108831111D01*
X112492185Y-108540000D01*
X112463513Y-108248889D01*
X112378599Y-107968966D01*
X112240706Y-107710986D01*
X112055134Y-107484866D01*
X112025313Y-107460393D01*
X112094180Y-107439502D01*
X112204494Y-107380537D01*
X112301185Y-107301185D01*
X112380537Y-107204494D01*
X112439502Y-107094180D01*
X112475812Y-106974482D01*
X112488072Y-106850000D01*
X112485000Y-106285750D01*
X112326250Y-106127000D01*
X111127000Y-106127000D01*
X111127000Y-106147000D01*
X110873000Y-106147000D01*
X110873000Y-106127000D01*
X109673750Y-106127000D01*
X109515000Y-106285750D01*
X109511928Y-106850000D01*
X109524188Y-106974482D01*
X109560498Y-107094180D01*
X109619463Y-107204494D01*
X109698815Y-107301185D01*
X109795506Y-107380537D01*
X109905820Y-107439502D01*
X109974687Y-107460393D01*
X109944866Y-107484866D01*
X109759294Y-107710986D01*
X109621401Y-107968966D01*
X109536487Y-108248889D01*
X109507815Y-108540000D01*
X107160000Y-108540000D01*
X107160000Y-105150000D01*
X109511928Y-105150000D01*
X109515000Y-105714250D01*
X109673750Y-105873000D01*
X110873000Y-105873000D01*
X110873000Y-104673750D01*
X111127000Y-104673750D01*
X111127000Y-105873000D01*
X112326250Y-105873000D01*
X112485000Y-105714250D01*
X112488072Y-105150000D01*
X112475812Y-105025518D01*
X112439502Y-104905820D01*
X112380537Y-104795506D01*
X112301185Y-104698815D01*
X112204494Y-104619463D01*
X112094180Y-104560498D01*
X111974482Y-104524188D01*
X111850000Y-104511928D01*
X111285750Y-104515000D01*
X111127000Y-104673750D01*
X110873000Y-104673750D01*
X110714250Y-104515000D01*
X110150000Y-104511928D01*
X110025518Y-104524188D01*
X109905820Y-104560498D01*
X109795506Y-104619463D01*
X109698815Y-104698815D01*
X109619463Y-104795506D01*
X109560498Y-104905820D01*
X109524188Y-105025518D01*
X109511928Y-105150000D01*
X107160000Y-105150000D01*
X107160000Y-100900000D01*
X108921928Y-100900000D01*
X108934188Y-101024482D01*
X108970498Y-101144180D01*
X109029463Y-101254494D01*
X109108815Y-101351185D01*
X109205506Y-101430537D01*
X109315820Y-101489502D01*
X109435518Y-101525812D01*
X109560000Y-101538072D01*
X110174250Y-101535000D01*
X110333000Y-101376250D01*
X110333000Y-100127000D01*
X109083750Y-100127000D01*
X108925000Y-100285750D01*
X108921928Y-100900000D01*
X107160000Y-100900000D01*
X107160000Y-99100000D01*
X108921928Y-99100000D01*
X108925000Y-99714250D01*
X109083750Y-99873000D01*
X110333000Y-99873000D01*
X110333000Y-98623750D01*
X110587000Y-98623750D01*
X110587000Y-99873000D01*
X110607000Y-99873000D01*
X110607000Y-100127000D01*
X110587000Y-100127000D01*
X110587000Y-101376250D01*
X110745750Y-101535000D01*
X111360000Y-101538072D01*
X111484482Y-101525812D01*
X111604180Y-101489502D01*
X111714494Y-101430537D01*
X111811185Y-101351185D01*
X111890537Y-101254494D01*
X111949502Y-101144180D01*
X111955056Y-101125873D01*
X112021495Y-101192312D01*
X112272905Y-101360299D01*
X112552257Y-101476011D01*
X112848816Y-101535000D01*
X113151184Y-101535000D01*
X113447743Y-101476011D01*
X113727095Y-101360299D01*
X113978505Y-101192312D01*
X114192312Y-100978505D01*
X114360299Y-100727095D01*
X114476011Y-100447743D01*
X114535000Y-100151184D01*
X114535000Y-99848816D01*
X114476011Y-99552257D01*
X114360299Y-99272905D01*
X114192312Y-99021495D01*
X113978505Y-98807688D01*
X113727095Y-98639701D01*
X113447743Y-98523989D01*
X113151184Y-98465000D01*
X112848816Y-98465000D01*
X112552257Y-98523989D01*
X112272905Y-98639701D01*
X112021495Y-98807688D01*
X111955056Y-98874127D01*
X111949502Y-98855820D01*
X111890537Y-98745506D01*
X111811185Y-98648815D01*
X111714494Y-98569463D01*
X111604180Y-98510498D01*
X111484482Y-98474188D01*
X111360000Y-98461928D01*
X110745750Y-98465000D01*
X110587000Y-98623750D01*
X110333000Y-98623750D01*
X110174250Y-98465000D01*
X109560000Y-98461928D01*
X109435518Y-98474188D01*
X109315820Y-98510498D01*
X109205506Y-98569463D01*
X109108815Y-98648815D01*
X109029463Y-98745506D01*
X108970498Y-98855820D01*
X108934188Y-98975518D01*
X108921928Y-99100000D01*
X107160000Y-99100000D01*
X107160000Y-95896890D01*
X109558524Y-95896890D01*
X109603175Y-96044099D01*
X109728359Y-96306920D01*
X109902412Y-96540269D01*
X110118645Y-96735178D01*
X110368748Y-96884157D01*
X110643109Y-96981481D01*
X110873000Y-96860814D01*
X110873000Y-95667000D01*
X111127000Y-95667000D01*
X111127000Y-96860814D01*
X111356891Y-96981481D01*
X111631252Y-96884157D01*
X111881355Y-96735178D01*
X112097588Y-96540269D01*
X112271641Y-96306920D01*
X112396825Y-96044099D01*
X112441476Y-95896890D01*
X112320155Y-95667000D01*
X111127000Y-95667000D01*
X110873000Y-95667000D01*
X109679845Y-95667000D01*
X109558524Y-95896890D01*
X107160000Y-95896890D01*
X107160000Y-92150000D01*
X109511928Y-92150000D01*
X109511928Y-93850000D01*
X109524188Y-93974482D01*
X109560498Y-94094180D01*
X109619463Y-94204494D01*
X109698815Y-94301185D01*
X109795506Y-94380537D01*
X109905820Y-94439502D01*
X109986466Y-94463966D01*
X109902412Y-94539731D01*
X109728359Y-94773080D01*
X109603175Y-95035901D01*
X109558524Y-95183110D01*
X109679845Y-95413000D01*
X110873000Y-95413000D01*
X110873000Y-95393000D01*
X111127000Y-95393000D01*
X111127000Y-95413000D01*
X112320155Y-95413000D01*
X112441476Y-95183110D01*
X112396825Y-95035901D01*
X112271641Y-94773080D01*
X112097588Y-94539731D01*
X112013534Y-94463966D01*
X112094180Y-94439502D01*
X112204494Y-94380537D01*
X112301185Y-94301185D01*
X112380537Y-94204494D01*
X112439502Y-94094180D01*
X112475812Y-93974482D01*
X112488072Y-93850000D01*
X112488072Y-92863589D01*
X113615000Y-92863589D01*
X113615000Y-93136411D01*
X113668225Y-93403989D01*
X113772629Y-93656043D01*
X113924201Y-93882886D01*
X114117114Y-94075799D01*
X114343957Y-94227371D01*
X114596011Y-94331775D01*
X114863589Y-94385000D01*
X114956645Y-94385000D01*
X118240001Y-97668357D01*
X118240000Y-105874446D01*
X118227371Y-105843957D01*
X118075799Y-105617114D01*
X117882886Y-105424201D01*
X117656043Y-105272629D01*
X117403989Y-105168225D01*
X117136411Y-105115000D01*
X117135000Y-105115000D01*
X117135000Y-101573685D01*
X117325799Y-101382886D01*
X117477371Y-101156043D01*
X117581775Y-100903989D01*
X117635000Y-100636411D01*
X117635000Y-100363589D01*
X117581775Y-100096011D01*
X117477371Y-99843957D01*
X117325799Y-99617114D01*
X117132886Y-99424201D01*
X116906043Y-99272629D01*
X116653989Y-99168225D01*
X116386411Y-99115000D01*
X116113589Y-99115000D01*
X115846011Y-99168225D01*
X115593957Y-99272629D01*
X115367114Y-99424201D01*
X115174201Y-99617114D01*
X115022629Y-99843957D01*
X114918225Y-100096011D01*
X114865000Y-100363589D01*
X114865000Y-100636411D01*
X114918225Y-100903989D01*
X115022629Y-101156043D01*
X115174201Y-101382886D01*
X115365000Y-101573685D01*
X115365001Y-105706521D01*
X115360719Y-105750000D01*
X115377805Y-105923490D01*
X115428412Y-106090313D01*
X115510590Y-106244059D01*
X115593468Y-106345046D01*
X115593471Y-106345049D01*
X115615000Y-106371282D01*
X115615000Y-106636411D01*
X115668225Y-106903989D01*
X115772629Y-107156043D01*
X115924201Y-107382886D01*
X116117114Y-107575799D01*
X116343957Y-107727371D01*
X116596011Y-107831775D01*
X116863589Y-107885000D01*
X117136411Y-107885000D01*
X117403989Y-107831775D01*
X117656043Y-107727371D01*
X117882886Y-107575799D01*
X117899389Y-107559296D01*
X117918225Y-107653989D01*
X118022629Y-107906043D01*
X118174201Y-108132886D01*
X118367114Y-108325799D01*
X118593957Y-108477371D01*
X118846011Y-108581775D01*
X119113589Y-108635000D01*
X119386411Y-108635000D01*
X119653989Y-108581775D01*
X119906043Y-108477371D01*
X120044286Y-108385000D01*
X135926315Y-108385000D01*
X136117114Y-108575799D01*
X136343957Y-108727371D01*
X136596011Y-108831775D01*
X136863589Y-108885000D01*
X137136411Y-108885000D01*
X137403989Y-108831775D01*
X137656043Y-108727371D01*
X137882886Y-108575799D01*
X138075799Y-108382886D01*
X138227371Y-108156043D01*
X138331775Y-107903989D01*
X138385000Y-107636411D01*
X138385000Y-107363589D01*
X138331775Y-107096011D01*
X138227371Y-106843957D01*
X138075799Y-106617114D01*
X137882886Y-106424201D01*
X137656043Y-106272629D01*
X137403989Y-106168225D01*
X137136411Y-106115000D01*
X136863589Y-106115000D01*
X136596011Y-106168225D01*
X136343957Y-106272629D01*
X136117114Y-106424201D01*
X135926315Y-106615000D01*
X120486087Y-106615000D01*
X120477371Y-106593957D01*
X120325799Y-106367114D01*
X120260000Y-106301315D01*
X120260000Y-102570512D01*
X124059783Y-102570512D01*
X124101213Y-102850130D01*
X124196397Y-103116292D01*
X124263329Y-103241514D01*
X124507298Y-103313097D01*
X125320395Y-102500000D01*
X124507298Y-101686903D01*
X124263329Y-101758486D01*
X124142429Y-102013996D01*
X124073700Y-102288184D01*
X124059783Y-102570512D01*
X120260000Y-102570512D01*
X120260000Y-101507298D01*
X124686903Y-101507298D01*
X125500000Y-102320395D01*
X125514143Y-102306253D01*
X125693748Y-102485858D01*
X125679605Y-102500000D01*
X125693748Y-102514143D01*
X125514143Y-102693748D01*
X125500000Y-102679605D01*
X124686903Y-103492702D01*
X124758486Y-103736671D01*
X125013996Y-103857571D01*
X125288184Y-103926300D01*
X125570512Y-103940217D01*
X125850130Y-103898787D01*
X126116292Y-103803603D01*
X126238309Y-103738384D01*
X126248815Y-103751185D01*
X126345506Y-103830537D01*
X126455820Y-103889502D01*
X126575518Y-103925812D01*
X126700000Y-103938072D01*
X128300000Y-103938072D01*
X128424482Y-103925812D01*
X128544180Y-103889502D01*
X128654494Y-103830537D01*
X128751185Y-103751185D01*
X128830537Y-103654494D01*
X128889502Y-103544180D01*
X128925812Y-103424482D01*
X128938072Y-103300000D01*
X128938072Y-101700000D01*
X128925812Y-101575518D01*
X128889502Y-101455820D01*
X128830537Y-101345506D01*
X128751185Y-101248815D01*
X128654494Y-101169463D01*
X128544180Y-101110498D01*
X128424482Y-101074188D01*
X128300000Y-101061928D01*
X126700000Y-101061928D01*
X126575518Y-101074188D01*
X126455820Y-101110498D01*
X126345506Y-101169463D01*
X126248815Y-101248815D01*
X126238193Y-101261758D01*
X125986004Y-101142429D01*
X125711816Y-101073700D01*
X125429488Y-101059783D01*
X125149870Y-101101213D01*
X124883708Y-101196397D01*
X124758486Y-101263329D01*
X124686903Y-101507298D01*
X120260000Y-101507298D01*
X120260000Y-99863589D01*
X128115000Y-99863589D01*
X128115000Y-100136411D01*
X128168225Y-100403989D01*
X128272629Y-100656043D01*
X128424201Y-100882886D01*
X128617114Y-101075799D01*
X128843957Y-101227371D01*
X129096011Y-101331775D01*
X129363589Y-101385000D01*
X129636411Y-101385000D01*
X129903989Y-101331775D01*
X130156043Y-101227371D01*
X130347719Y-101099297D01*
X132115001Y-102866580D01*
X132115001Y-102926314D01*
X131924201Y-103117114D01*
X131772629Y-103343957D01*
X131668225Y-103596011D01*
X131615000Y-103863589D01*
X131615000Y-104136411D01*
X131668225Y-104403989D01*
X131772629Y-104656043D01*
X131924201Y-104882886D01*
X132117114Y-105075799D01*
X132343957Y-105227371D01*
X132596011Y-105331775D01*
X132863589Y-105385000D01*
X133136411Y-105385000D01*
X133403989Y-105331775D01*
X133656043Y-105227371D01*
X133882886Y-105075799D01*
X134075799Y-104882886D01*
X134227371Y-104656043D01*
X134331775Y-104403989D01*
X134385000Y-104136411D01*
X134385000Y-103863589D01*
X134331775Y-103596011D01*
X134227371Y-103343957D01*
X134075799Y-103117114D01*
X133885000Y-102926315D01*
X133885000Y-102543469D01*
X133889281Y-102500000D01*
X133885000Y-102456531D01*
X133885000Y-102456523D01*
X133872195Y-102326510D01*
X133821589Y-102159687D01*
X133739411Y-102005941D01*
X133628817Y-101871183D01*
X133595049Y-101843470D01*
X131156534Y-99404956D01*
X131128817Y-99371183D01*
X131042082Y-99300000D01*
X141061928Y-99300000D01*
X141074188Y-99424482D01*
X141110498Y-99544180D01*
X141169463Y-99654494D01*
X141248815Y-99751185D01*
X141345506Y-99830537D01*
X141455820Y-99889502D01*
X141575518Y-99925812D01*
X141700000Y-99938072D01*
X142714250Y-99935000D01*
X142873000Y-99776250D01*
X142873000Y-98127000D01*
X143127000Y-98127000D01*
X143127000Y-99776250D01*
X143285750Y-99935000D01*
X144300000Y-99938072D01*
X144424482Y-99925812D01*
X144544180Y-99889502D01*
X144654494Y-99830537D01*
X144751185Y-99751185D01*
X144830537Y-99654494D01*
X144889502Y-99544180D01*
X144925812Y-99424482D01*
X144938072Y-99300000D01*
X144935000Y-98285750D01*
X144776250Y-98127000D01*
X143127000Y-98127000D01*
X142873000Y-98127000D01*
X141223750Y-98127000D01*
X141065000Y-98285750D01*
X141061928Y-99300000D01*
X131042082Y-99300000D01*
X130994059Y-99260589D01*
X130840313Y-99178411D01*
X130673490Y-99127805D01*
X130576564Y-99118259D01*
X130575799Y-99117114D01*
X130382886Y-98924201D01*
X130156043Y-98772629D01*
X129903989Y-98668225D01*
X129636411Y-98615000D01*
X129363589Y-98615000D01*
X129096011Y-98668225D01*
X128843957Y-98772629D01*
X128617114Y-98924201D01*
X128424201Y-99117114D01*
X128272629Y-99343957D01*
X128168225Y-99596011D01*
X128115000Y-99863589D01*
X120260000Y-99863589D01*
X120260000Y-97299608D01*
X120264886Y-97250000D01*
X120245385Y-97052005D01*
X120187632Y-96861620D01*
X120187201Y-96860814D01*
X120101245Y-96700000D01*
X141061928Y-96700000D01*
X141065000Y-97714250D01*
X141223750Y-97873000D01*
X142873000Y-97873000D01*
X142873000Y-96223750D01*
X143127000Y-96223750D01*
X143127000Y-97873000D01*
X144776250Y-97873000D01*
X144935000Y-97714250D01*
X144938072Y-96700000D01*
X144925812Y-96575518D01*
X144889502Y-96455820D01*
X144830537Y-96345506D01*
X144751185Y-96248815D01*
X144654494Y-96169463D01*
X144544180Y-96110498D01*
X144424482Y-96074188D01*
X144300000Y-96061928D01*
X143285750Y-96065000D01*
X143127000Y-96223750D01*
X142873000Y-96223750D01*
X142714250Y-96065000D01*
X141700000Y-96061928D01*
X141575518Y-96074188D01*
X141455820Y-96110498D01*
X141345506Y-96169463D01*
X141248815Y-96248815D01*
X141169463Y-96345506D01*
X141110498Y-96455820D01*
X141074188Y-96575518D01*
X141061928Y-96700000D01*
X120101245Y-96700000D01*
X120093847Y-96686160D01*
X119967633Y-96532367D01*
X119929100Y-96500744D01*
X116421058Y-92992702D01*
X131686903Y-92992702D01*
X131758486Y-93236671D01*
X132013996Y-93357571D01*
X132288184Y-93426300D01*
X132570512Y-93440217D01*
X132850130Y-93398787D01*
X133116292Y-93303603D01*
X133241514Y-93236671D01*
X133313097Y-92992702D01*
X132500000Y-92179605D01*
X131686903Y-92992702D01*
X116421058Y-92992702D01*
X116385000Y-92956645D01*
X116385000Y-92863589D01*
X116331775Y-92596011D01*
X116227371Y-92343957D01*
X116075799Y-92117114D01*
X116029197Y-92070512D01*
X131059783Y-92070512D01*
X131101213Y-92350130D01*
X131196397Y-92616292D01*
X131263329Y-92741514D01*
X131507298Y-92813097D01*
X132320395Y-92000000D01*
X132306253Y-91985858D01*
X132485858Y-91806253D01*
X132500000Y-91820395D01*
X132514143Y-91806253D01*
X132693748Y-91985858D01*
X132679605Y-92000000D01*
X133492702Y-92813097D01*
X133505237Y-92809419D01*
X141065000Y-92809419D01*
X141065000Y-93190581D01*
X141139361Y-93564419D01*
X141285225Y-93916566D01*
X141496987Y-94233491D01*
X141766509Y-94503013D01*
X142083434Y-94714775D01*
X142435581Y-94860639D01*
X142809419Y-94935000D01*
X143190581Y-94935000D01*
X143564419Y-94860639D01*
X143916566Y-94714775D01*
X144233491Y-94503013D01*
X144503013Y-94233491D01*
X144714775Y-93916566D01*
X144860639Y-93564419D01*
X144935000Y-93190581D01*
X144935000Y-92809419D01*
X144860639Y-92435581D01*
X144714775Y-92083434D01*
X144503013Y-91766509D01*
X144233491Y-91496987D01*
X143916566Y-91285225D01*
X143564419Y-91139361D01*
X143190581Y-91065000D01*
X142809419Y-91065000D01*
X142435581Y-91139361D01*
X142083434Y-91285225D01*
X141766509Y-91496987D01*
X141496987Y-91766509D01*
X141285225Y-92083434D01*
X141139361Y-92435581D01*
X141065000Y-92809419D01*
X133505237Y-92809419D01*
X133736671Y-92741514D01*
X133857571Y-92486004D01*
X133926300Y-92211816D01*
X133940217Y-91929488D01*
X133898787Y-91649870D01*
X133803603Y-91383708D01*
X133738384Y-91261691D01*
X133751185Y-91251185D01*
X133830537Y-91154494D01*
X133889502Y-91044180D01*
X133925812Y-90924482D01*
X133938072Y-90800000D01*
X133938072Y-89200000D01*
X133925812Y-89075518D01*
X133889502Y-88955820D01*
X133830537Y-88845506D01*
X133751185Y-88748815D01*
X133654494Y-88669463D01*
X133544180Y-88610498D01*
X133424482Y-88574188D01*
X133300000Y-88561928D01*
X131700000Y-88561928D01*
X131575518Y-88574188D01*
X131455820Y-88610498D01*
X131345506Y-88669463D01*
X131248815Y-88748815D01*
X131169463Y-88845506D01*
X131110498Y-88955820D01*
X131074188Y-89075518D01*
X131061928Y-89200000D01*
X131061928Y-90800000D01*
X131074188Y-90924482D01*
X131110498Y-91044180D01*
X131169463Y-91154494D01*
X131248815Y-91251185D01*
X131261758Y-91261807D01*
X131142429Y-91513996D01*
X131073700Y-91788184D01*
X131059783Y-92070512D01*
X116029197Y-92070512D01*
X115882886Y-91924201D01*
X115656043Y-91772629D01*
X115403989Y-91668225D01*
X115136411Y-91615000D01*
X114863589Y-91615000D01*
X114596011Y-91668225D01*
X114343957Y-91772629D01*
X114117114Y-91924201D01*
X113924201Y-92117114D01*
X113772629Y-92343957D01*
X113668225Y-92596011D01*
X113615000Y-92863589D01*
X112488072Y-92863589D01*
X112488072Y-92150000D01*
X112475812Y-92025518D01*
X112439502Y-91905820D01*
X112380537Y-91795506D01*
X112301185Y-91698815D01*
X112204494Y-91619463D01*
X112094180Y-91560498D01*
X111974482Y-91524188D01*
X111850000Y-91511928D01*
X110150000Y-91511928D01*
X110025518Y-91524188D01*
X109905820Y-91560498D01*
X109795506Y-91619463D01*
X109698815Y-91698815D01*
X109619463Y-91795506D01*
X109560498Y-91905820D01*
X109524188Y-92025518D01*
X109511928Y-92150000D01*
X107160000Y-92150000D01*
X107160000Y-64680000D01*
X109507815Y-64680000D01*
X109536487Y-64971111D01*
X109621401Y-65251034D01*
X109759294Y-65509014D01*
X109944866Y-65735134D01*
X110170986Y-65920706D01*
X110225791Y-65950000D01*
X110170986Y-65979294D01*
X109944866Y-66164866D01*
X109759294Y-66390986D01*
X109621401Y-66648966D01*
X109536487Y-66928889D01*
X109507815Y-67220000D01*
X109536487Y-67511111D01*
X109621401Y-67791034D01*
X109759294Y-68049014D01*
X109944866Y-68275134D01*
X110170986Y-68460706D01*
X110225791Y-68490000D01*
X110170986Y-68519294D01*
X109944866Y-68704866D01*
X109759294Y-68930986D01*
X109621401Y-69188966D01*
X109536487Y-69468889D01*
X109507815Y-69760000D01*
X109536487Y-70051111D01*
X109621401Y-70331034D01*
X109759294Y-70589014D01*
X109944866Y-70815134D01*
X110170986Y-71000706D01*
X110225791Y-71030000D01*
X110170986Y-71059294D01*
X109944866Y-71244866D01*
X109759294Y-71470986D01*
X109621401Y-71728966D01*
X109536487Y-72008889D01*
X109507815Y-72300000D01*
X109536487Y-72591111D01*
X109621401Y-72871034D01*
X109759294Y-73129014D01*
X109944866Y-73355134D01*
X110170986Y-73540706D01*
X110225791Y-73570000D01*
X110170986Y-73599294D01*
X109944866Y-73784866D01*
X109759294Y-74010986D01*
X109621401Y-74268966D01*
X109536487Y-74548889D01*
X109507815Y-74840000D01*
X109536487Y-75131111D01*
X109621401Y-75411034D01*
X109759294Y-75669014D01*
X109944866Y-75895134D01*
X110170986Y-76080706D01*
X110225791Y-76110000D01*
X110170986Y-76139294D01*
X109944866Y-76324866D01*
X109759294Y-76550986D01*
X109621401Y-76808966D01*
X109536487Y-77088889D01*
X109507815Y-77380000D01*
X109536487Y-77671111D01*
X109621401Y-77951034D01*
X109759294Y-78209014D01*
X109944866Y-78435134D01*
X110170986Y-78620706D01*
X110225791Y-78650000D01*
X110170986Y-78679294D01*
X109944866Y-78864866D01*
X109759294Y-79090986D01*
X109621401Y-79348966D01*
X109536487Y-79628889D01*
X109507815Y-79920000D01*
X109536487Y-80211111D01*
X109621401Y-80491034D01*
X109759294Y-80749014D01*
X109944866Y-80975134D01*
X110170986Y-81160706D01*
X110225791Y-81190000D01*
X110170986Y-81219294D01*
X109944866Y-81404866D01*
X109759294Y-81630986D01*
X109621401Y-81888966D01*
X109536487Y-82168889D01*
X109507815Y-82460000D01*
X109536487Y-82751111D01*
X109621401Y-83031034D01*
X109759294Y-83289014D01*
X109944866Y-83515134D01*
X110170986Y-83700706D01*
X110225791Y-83730000D01*
X110170986Y-83759294D01*
X109944866Y-83944866D01*
X109759294Y-84170986D01*
X109621401Y-84428966D01*
X109536487Y-84708889D01*
X109507815Y-85000000D01*
X109536487Y-85291111D01*
X109621401Y-85571034D01*
X109759294Y-85829014D01*
X109944866Y-86055134D01*
X110170986Y-86240706D01*
X110428966Y-86378599D01*
X110708889Y-86463513D01*
X110927050Y-86485000D01*
X111072950Y-86485000D01*
X111291111Y-86463513D01*
X111571034Y-86378599D01*
X111829014Y-86240706D01*
X112055134Y-86055134D01*
X112240706Y-85829014D01*
X112378599Y-85571034D01*
X112463513Y-85291111D01*
X112492185Y-85000000D01*
X112463513Y-84708889D01*
X112378599Y-84428966D01*
X112240706Y-84170986D01*
X112055134Y-83944866D01*
X111829014Y-83759294D01*
X111774209Y-83730000D01*
X111829014Y-83700706D01*
X112055134Y-83515134D01*
X112240706Y-83289014D01*
X112378599Y-83031034D01*
X112463513Y-82751111D01*
X112492185Y-82460000D01*
X112463513Y-82168889D01*
X112378599Y-81888966D01*
X112240706Y-81630986D01*
X112055134Y-81404866D01*
X111829014Y-81219294D01*
X111774209Y-81190000D01*
X111829014Y-81160706D01*
X112055134Y-80975134D01*
X112240706Y-80749014D01*
X112378599Y-80491034D01*
X112463513Y-80211111D01*
X112492185Y-79920000D01*
X112463513Y-79628889D01*
X112378599Y-79348966D01*
X112240706Y-79090986D01*
X112055134Y-78864866D01*
X111829014Y-78679294D01*
X111774209Y-78650000D01*
X111829014Y-78620706D01*
X112055134Y-78435134D01*
X112240706Y-78209014D01*
X112378599Y-77951034D01*
X112463513Y-77671111D01*
X112492185Y-77380000D01*
X112463513Y-77088889D01*
X112378599Y-76808966D01*
X112240706Y-76550986D01*
X112055134Y-76324866D01*
X111829014Y-76139294D01*
X111774209Y-76110000D01*
X111829014Y-76080706D01*
X112055134Y-75895134D01*
X112240706Y-75669014D01*
X112378599Y-75411034D01*
X112414808Y-75291668D01*
X112428412Y-75336511D01*
X112510590Y-75490257D01*
X112593468Y-75591244D01*
X112593471Y-75591247D01*
X112621184Y-75625015D01*
X112654951Y-75652727D01*
X115615000Y-78612777D01*
X115615001Y-84588948D01*
X115513527Y-84690422D01*
X115374541Y-84898429D01*
X115278805Y-85129555D01*
X115230000Y-85374916D01*
X115230000Y-85625084D01*
X115278805Y-85870445D01*
X115374541Y-86101571D01*
X115513527Y-86309578D01*
X115690422Y-86486473D01*
X115898429Y-86625459D01*
X116129555Y-86721195D01*
X116374916Y-86770000D01*
X116625084Y-86770000D01*
X116870445Y-86721195D01*
X117101571Y-86625459D01*
X117309578Y-86486473D01*
X117486473Y-86309578D01*
X117625459Y-86101571D01*
X117721195Y-85870445D01*
X117770000Y-85625084D01*
X117770000Y-85374916D01*
X117721195Y-85129555D01*
X117625459Y-84898429D01*
X117486473Y-84690422D01*
X117385000Y-84588949D01*
X117385000Y-78289664D01*
X117385454Y-78285057D01*
X118945445Y-79845049D01*
X118973158Y-79878817D01*
X119006926Y-79906530D01*
X119006928Y-79906532D01*
X119023339Y-79920000D01*
X119107916Y-79989411D01*
X119261662Y-80071589D01*
X119428485Y-80122195D01*
X119558498Y-80135000D01*
X119558508Y-80135000D01*
X119601974Y-80139281D01*
X119645440Y-80135000D01*
X122162250Y-80135000D01*
X122022629Y-80343957D01*
X121918225Y-80596011D01*
X121865000Y-80863589D01*
X121865000Y-81133422D01*
X121654956Y-81343466D01*
X121621183Y-81371183D01*
X121510589Y-81505942D01*
X121428411Y-81659688D01*
X121377805Y-81826511D01*
X121365000Y-81956524D01*
X121365000Y-81956531D01*
X121360719Y-82000000D01*
X121365000Y-82043469D01*
X121365001Y-88706521D01*
X121360719Y-88750000D01*
X121377805Y-88923490D01*
X121428412Y-89090313D01*
X121510590Y-89244059D01*
X121593468Y-89345046D01*
X121593471Y-89345049D01*
X121621184Y-89378817D01*
X121654951Y-89406529D01*
X122843470Y-90595049D01*
X122871183Y-90628817D01*
X122904951Y-90656530D01*
X122904953Y-90656532D01*
X122953529Y-90696397D01*
X123005941Y-90739411D01*
X123159687Y-90821589D01*
X123275903Y-90856843D01*
X123326509Y-90872195D01*
X123341306Y-90873652D01*
X123423436Y-90881741D01*
X123424201Y-90882886D01*
X123617114Y-91075799D01*
X123843957Y-91227371D01*
X124096011Y-91331775D01*
X124363589Y-91385000D01*
X124636411Y-91385000D01*
X124903989Y-91331775D01*
X125156043Y-91227371D01*
X125294286Y-91135000D01*
X125444249Y-91135000D01*
X125500000Y-91140491D01*
X125555751Y-91135000D01*
X125555752Y-91135000D01*
X125722499Y-91118577D01*
X125936447Y-91053676D01*
X126133623Y-90948284D01*
X126306449Y-90806449D01*
X126341996Y-90763135D01*
X130263141Y-86841991D01*
X130306449Y-86806449D01*
X130448284Y-86633623D01*
X130553676Y-86436447D01*
X130567365Y-86391320D01*
X130575799Y-86382886D01*
X130727371Y-86156043D01*
X130831775Y-85903989D01*
X130885000Y-85636411D01*
X130885000Y-85363589D01*
X130831775Y-85096011D01*
X130727371Y-84843957D01*
X130575799Y-84617114D01*
X130382886Y-84424201D01*
X130156043Y-84272629D01*
X129903989Y-84168225D01*
X129636411Y-84115000D01*
X129363589Y-84115000D01*
X129096011Y-84168225D01*
X128843957Y-84272629D01*
X128617114Y-84424201D01*
X128424201Y-84617114D01*
X128272629Y-84843957D01*
X128168225Y-85096011D01*
X128115000Y-85363589D01*
X128115000Y-85636411D01*
X128138801Y-85756067D01*
X125704305Y-88190564D01*
X125727371Y-88156043D01*
X125831775Y-87903989D01*
X125885000Y-87636411D01*
X125885000Y-87366578D01*
X127095050Y-86156529D01*
X127128817Y-86128817D01*
X127188781Y-86055752D01*
X127239410Y-85994060D01*
X127239411Y-85994059D01*
X127321589Y-85840313D01*
X127372195Y-85673490D01*
X127385000Y-85543477D01*
X127385000Y-85543467D01*
X127389281Y-85500001D01*
X127385000Y-85456535D01*
X127385000Y-81616578D01*
X127616578Y-81385000D01*
X127886411Y-81385000D01*
X128153989Y-81331775D01*
X128406043Y-81227371D01*
X128447006Y-81200000D01*
X141061928Y-81200000D01*
X141061928Y-83800000D01*
X141074188Y-83924482D01*
X141110498Y-84044180D01*
X141169463Y-84154494D01*
X141248815Y-84251185D01*
X141345506Y-84330537D01*
X141455820Y-84389502D01*
X141575518Y-84425812D01*
X141700000Y-84438072D01*
X144300000Y-84438072D01*
X144424482Y-84425812D01*
X144544180Y-84389502D01*
X144654494Y-84330537D01*
X144751185Y-84251185D01*
X144830537Y-84154494D01*
X144889502Y-84044180D01*
X144925812Y-83924482D01*
X144938072Y-83800000D01*
X144938072Y-81200000D01*
X144925812Y-81075518D01*
X144889502Y-80955820D01*
X144830537Y-80845506D01*
X144751185Y-80748815D01*
X144654494Y-80669463D01*
X144544180Y-80610498D01*
X144424482Y-80574188D01*
X144300000Y-80561928D01*
X141700000Y-80561928D01*
X141575518Y-80574188D01*
X141455820Y-80610498D01*
X141345506Y-80669463D01*
X141248815Y-80748815D01*
X141169463Y-80845506D01*
X141110498Y-80955820D01*
X141074188Y-81075518D01*
X141061928Y-81200000D01*
X128447006Y-81200000D01*
X128632886Y-81075799D01*
X128825799Y-80882886D01*
X128977371Y-80656043D01*
X129081775Y-80403989D01*
X129135000Y-80136411D01*
X129135000Y-79863589D01*
X129081775Y-79596011D01*
X128977371Y-79343957D01*
X128825799Y-79117114D01*
X128632886Y-78924201D01*
X128406043Y-78772629D01*
X128153989Y-78668225D01*
X127886411Y-78615000D01*
X127613589Y-78615000D01*
X127346011Y-78668225D01*
X127093957Y-78772629D01*
X126867114Y-78924201D01*
X126674201Y-79117114D01*
X126522629Y-79343957D01*
X126418225Y-79596011D01*
X126365000Y-79863589D01*
X126365000Y-80133422D01*
X125904951Y-80593471D01*
X125871184Y-80621183D01*
X125843471Y-80654951D01*
X125843468Y-80654954D01*
X125760590Y-80755941D01*
X125678412Y-80909687D01*
X125627805Y-81076510D01*
X125610719Y-81250000D01*
X125615001Y-81293479D01*
X125615000Y-85133421D01*
X124633422Y-86115000D01*
X124363589Y-86115000D01*
X124096011Y-86168225D01*
X123843957Y-86272629D01*
X123617114Y-86424201D01*
X123424201Y-86617114D01*
X123272629Y-86843957D01*
X123168225Y-87096011D01*
X123135000Y-87263043D01*
X123135000Y-82385000D01*
X123386411Y-82385000D01*
X123653989Y-82331775D01*
X123906043Y-82227371D01*
X124132886Y-82075799D01*
X124325799Y-81882886D01*
X124477371Y-81656043D01*
X124581775Y-81403989D01*
X124635000Y-81136411D01*
X124635000Y-80863589D01*
X124581775Y-80596011D01*
X124477371Y-80343957D01*
X124325799Y-80117114D01*
X124294248Y-80085563D01*
X124340313Y-80071589D01*
X124494059Y-79989411D01*
X124628817Y-79878817D01*
X124656534Y-79845044D01*
X126802145Y-77699433D01*
X126843957Y-77727371D01*
X127096011Y-77831775D01*
X127363589Y-77885000D01*
X127636411Y-77885000D01*
X127903989Y-77831775D01*
X128156043Y-77727371D01*
X128382886Y-77575799D01*
X128575799Y-77382886D01*
X128624888Y-77309419D01*
X141065000Y-77309419D01*
X141065000Y-77690581D01*
X141139361Y-78064419D01*
X141285225Y-78416566D01*
X141496987Y-78733491D01*
X141766509Y-79003013D01*
X142083434Y-79214775D01*
X142435581Y-79360639D01*
X142809419Y-79435000D01*
X143190581Y-79435000D01*
X143564419Y-79360639D01*
X143916566Y-79214775D01*
X144233491Y-79003013D01*
X144503013Y-78733491D01*
X144714775Y-78416566D01*
X144860639Y-78064419D01*
X144935000Y-77690581D01*
X144935000Y-77309419D01*
X144860639Y-76935581D01*
X144714775Y-76583434D01*
X144503013Y-76266509D01*
X144233491Y-75996987D01*
X143916566Y-75785225D01*
X143564419Y-75639361D01*
X143190581Y-75565000D01*
X142809419Y-75565000D01*
X142435581Y-75639361D01*
X142083434Y-75785225D01*
X141766509Y-75996987D01*
X141496987Y-76266509D01*
X141285225Y-76583434D01*
X141139361Y-76935581D01*
X141065000Y-77309419D01*
X128624888Y-77309419D01*
X128727371Y-77156043D01*
X128831775Y-76903989D01*
X128885000Y-76636411D01*
X128885000Y-76363589D01*
X128831775Y-76096011D01*
X128727371Y-75843957D01*
X128575799Y-75617114D01*
X128382886Y-75424201D01*
X128156043Y-75272629D01*
X127903989Y-75168225D01*
X127636411Y-75115000D01*
X127363589Y-75115000D01*
X127096011Y-75168225D01*
X126843957Y-75272629D01*
X126617114Y-75424201D01*
X126424201Y-75617114D01*
X126368553Y-75700398D01*
X126255941Y-75760589D01*
X126255939Y-75760590D01*
X126255940Y-75760590D01*
X126154953Y-75843468D01*
X126154951Y-75843470D01*
X126121183Y-75871183D01*
X126093470Y-75904951D01*
X124785000Y-77213421D01*
X124785000Y-77063589D01*
X124731775Y-76796011D01*
X124627371Y-76543957D01*
X124475799Y-76317114D01*
X124282886Y-76124201D01*
X124056043Y-75972629D01*
X123803989Y-75868225D01*
X123536411Y-75815000D01*
X123263589Y-75815000D01*
X122996011Y-75868225D01*
X122743957Y-75972629D01*
X122605714Y-76065000D01*
X122170131Y-76065000D01*
X122135000Y-76029869D01*
X122135000Y-71970132D01*
X122470132Y-71635000D01*
X136029869Y-71635000D01*
X137658009Y-73263141D01*
X137693551Y-73306449D01*
X137866377Y-73448284D01*
X138063553Y-73553676D01*
X138213934Y-73599294D01*
X138277500Y-73618577D01*
X138499999Y-73640491D01*
X138555751Y-73635000D01*
X141431178Y-73635000D01*
X141496987Y-73733491D01*
X141766509Y-74003013D01*
X142083434Y-74214775D01*
X142435581Y-74360639D01*
X142809419Y-74435000D01*
X143190581Y-74435000D01*
X143564419Y-74360639D01*
X143916566Y-74214775D01*
X144233491Y-74003013D01*
X144503013Y-73733491D01*
X144714775Y-73416566D01*
X144860639Y-73064419D01*
X144935000Y-72690581D01*
X144935000Y-72309419D01*
X144860639Y-71935581D01*
X144714775Y-71583434D01*
X144503013Y-71266509D01*
X144233491Y-70996987D01*
X143916566Y-70785225D01*
X143564419Y-70639361D01*
X143190581Y-70565000D01*
X142809419Y-70565000D01*
X142435581Y-70639361D01*
X142083434Y-70785225D01*
X141766509Y-70996987D01*
X141496987Y-71266509D01*
X141431178Y-71365000D01*
X138970132Y-71365000D01*
X137341996Y-69736865D01*
X137306449Y-69693551D01*
X137133623Y-69551716D01*
X136936447Y-69446324D01*
X136722499Y-69381423D01*
X136555752Y-69365000D01*
X136555751Y-69365000D01*
X136500000Y-69359509D01*
X136444249Y-69365000D01*
X122055752Y-69365000D01*
X122000000Y-69359509D01*
X121777501Y-69381423D01*
X121563553Y-69446324D01*
X121366377Y-69551716D01*
X121236856Y-69658011D01*
X121236855Y-69658012D01*
X121193551Y-69693551D01*
X121158013Y-69736855D01*
X120236859Y-70658009D01*
X120193552Y-70693551D01*
X120051717Y-70866377D01*
X120014265Y-70936446D01*
X119946324Y-71063554D01*
X119881423Y-71277502D01*
X119859509Y-71500000D01*
X119865001Y-71555761D01*
X119865000Y-76444248D01*
X119859509Y-76500000D01*
X119872944Y-76636411D01*
X119881423Y-76722498D01*
X119946324Y-76936446D01*
X120051716Y-77133623D01*
X120193551Y-77306449D01*
X120236865Y-77341996D01*
X120858004Y-77963135D01*
X120893551Y-78006449D01*
X121066377Y-78148284D01*
X121263553Y-78253676D01*
X121477501Y-78318577D01*
X121644248Y-78335000D01*
X121644257Y-78335000D01*
X121699999Y-78340490D01*
X121755741Y-78335000D01*
X122605714Y-78335000D01*
X122650612Y-78365000D01*
X119968554Y-78365000D01*
X115885000Y-74281447D01*
X115885000Y-74073685D01*
X116075799Y-73882886D01*
X116227371Y-73656043D01*
X116331775Y-73403989D01*
X116385000Y-73136411D01*
X116385000Y-72863589D01*
X116331775Y-72596011D01*
X116227371Y-72343957D01*
X116075799Y-72117114D01*
X115882886Y-71924201D01*
X115656043Y-71772629D01*
X115403989Y-71668225D01*
X115136411Y-71615000D01*
X114863589Y-71615000D01*
X114596011Y-71668225D01*
X114343957Y-71772629D01*
X114135000Y-71912250D01*
X114135000Y-67408580D01*
X114179991Y-67363589D01*
X124115000Y-67363589D01*
X124115000Y-67636411D01*
X124168225Y-67903989D01*
X124272629Y-68156043D01*
X124424201Y-68382886D01*
X124617114Y-68575799D01*
X124843957Y-68727371D01*
X125096011Y-68831775D01*
X125363589Y-68885000D01*
X125636411Y-68885000D01*
X125903989Y-68831775D01*
X126156043Y-68727371D01*
X126294286Y-68635000D01*
X141431178Y-68635000D01*
X141496987Y-68733491D01*
X141766509Y-69003013D01*
X142083434Y-69214775D01*
X142435581Y-69360639D01*
X142809419Y-69435000D01*
X143190581Y-69435000D01*
X143564419Y-69360639D01*
X143916566Y-69214775D01*
X144233491Y-69003013D01*
X144503013Y-68733491D01*
X144714775Y-68416566D01*
X144860639Y-68064419D01*
X144935000Y-67690581D01*
X144935000Y-67309419D01*
X144860639Y-66935581D01*
X144714775Y-66583434D01*
X144503013Y-66266509D01*
X144233491Y-65996987D01*
X143916566Y-65785225D01*
X143564419Y-65639361D01*
X143190581Y-65565000D01*
X142809419Y-65565000D01*
X142435581Y-65639361D01*
X142083434Y-65785225D01*
X141766509Y-65996987D01*
X141496987Y-66266509D01*
X141431178Y-66365000D01*
X126294286Y-66365000D01*
X126156043Y-66272629D01*
X125903989Y-66168225D01*
X125636411Y-66115000D01*
X125363589Y-66115000D01*
X125096011Y-66168225D01*
X124843957Y-66272629D01*
X124617114Y-66424201D01*
X124424201Y-66617114D01*
X124272629Y-66843957D01*
X124168225Y-67096011D01*
X124115000Y-67363589D01*
X114179991Y-67363589D01*
X115158581Y-66385000D01*
X120426315Y-66385000D01*
X120617114Y-66575799D01*
X120843957Y-66727371D01*
X121096011Y-66831775D01*
X121363589Y-66885000D01*
X121636411Y-66885000D01*
X121903989Y-66831775D01*
X122156043Y-66727371D01*
X122382886Y-66575799D01*
X122575799Y-66382886D01*
X122727371Y-66156043D01*
X122729503Y-66150895D01*
X122843957Y-66227371D01*
X123096011Y-66331775D01*
X123363589Y-66385000D01*
X123636411Y-66385000D01*
X123903989Y-66331775D01*
X124156043Y-66227371D01*
X124382886Y-66075799D01*
X124575799Y-65882886D01*
X124727371Y-65656043D01*
X124831775Y-65403989D01*
X124885000Y-65136411D01*
X124885000Y-64863589D01*
X124831775Y-64596011D01*
X124727371Y-64343957D01*
X124575799Y-64117114D01*
X124382886Y-63924201D01*
X124156043Y-63772629D01*
X123903989Y-63668225D01*
X123636411Y-63615000D01*
X123510000Y-63615000D01*
X123510000Y-62948685D01*
X123700799Y-62757886D01*
X123852371Y-62531043D01*
X123956775Y-62278989D01*
X124010000Y-62011411D01*
X124010000Y-61738589D01*
X123956775Y-61471011D01*
X123852371Y-61218957D01*
X123700799Y-60992114D01*
X123593685Y-60885000D01*
X130633422Y-60885000D01*
X131615000Y-61866579D01*
X131615000Y-62136411D01*
X131668225Y-62403989D01*
X131772629Y-62656043D01*
X131924201Y-62882886D01*
X132117114Y-63075799D01*
X132343957Y-63227371D01*
X132596011Y-63331775D01*
X132863589Y-63385000D01*
X133136411Y-63385000D01*
X133403989Y-63331775D01*
X133656043Y-63227371D01*
X133882886Y-63075799D01*
X134075799Y-62882886D01*
X134227371Y-62656043D01*
X134331775Y-62403989D01*
X134385000Y-62136411D01*
X134385000Y-61863589D01*
X134331775Y-61596011D01*
X134227371Y-61343957D01*
X134075799Y-61117114D01*
X133882886Y-60924201D01*
X133656043Y-60772629D01*
X133403989Y-60668225D01*
X133136411Y-60615000D01*
X132866579Y-60615000D01*
X131656534Y-59404956D01*
X131628817Y-59371183D01*
X131494059Y-59260589D01*
X131340313Y-59178411D01*
X131173490Y-59127805D01*
X131043477Y-59115000D01*
X131043469Y-59115000D01*
X131000000Y-59110719D01*
X130956531Y-59115000D01*
X120543465Y-59115000D01*
X120499999Y-59110719D01*
X120456533Y-59115000D01*
X120456523Y-59115000D01*
X120326510Y-59127805D01*
X120159687Y-59178411D01*
X120005941Y-59260589D01*
X120005939Y-59260590D01*
X120005940Y-59260590D01*
X119904953Y-59343468D01*
X119904951Y-59343470D01*
X119871183Y-59371183D01*
X119843470Y-59404951D01*
X119133421Y-60115000D01*
X118863589Y-60115000D01*
X118596011Y-60168225D01*
X118343957Y-60272629D01*
X118117114Y-60424201D01*
X117924201Y-60617114D01*
X117772629Y-60843957D01*
X117668225Y-61096011D01*
X117615000Y-61363589D01*
X117615000Y-61636411D01*
X117668225Y-61903989D01*
X117772629Y-62156043D01*
X117924201Y-62382886D01*
X118117114Y-62575799D01*
X118343957Y-62727371D01*
X118596011Y-62831775D01*
X118863589Y-62885000D01*
X119136411Y-62885000D01*
X119403989Y-62831775D01*
X119656043Y-62727371D01*
X119882886Y-62575799D01*
X120075799Y-62382886D01*
X120227371Y-62156043D01*
X120331775Y-61903989D01*
X120385000Y-61636411D01*
X120385000Y-61366579D01*
X120866579Y-60885000D01*
X121656315Y-60885000D01*
X121549201Y-60992114D01*
X121397629Y-61218957D01*
X121293225Y-61471011D01*
X121240000Y-61738589D01*
X121240000Y-62011411D01*
X121293225Y-62278989D01*
X121397629Y-62531043D01*
X121549201Y-62757886D01*
X121740000Y-62948685D01*
X121740001Y-64081521D01*
X121735719Y-64125000D01*
X121736699Y-64134949D01*
X121636411Y-64115000D01*
X121363589Y-64115000D01*
X121096011Y-64168225D01*
X120843957Y-64272629D01*
X120617114Y-64424201D01*
X120426315Y-64615000D01*
X114835467Y-64615000D01*
X114792001Y-64610719D01*
X114748535Y-64615000D01*
X114748525Y-64615000D01*
X114618512Y-64627805D01*
X114451689Y-64678411D01*
X114297943Y-64760589D01*
X114297941Y-64760590D01*
X114297942Y-64760590D01*
X114196955Y-64843468D01*
X114196953Y-64843470D01*
X114163185Y-64871183D01*
X114135472Y-64904951D01*
X112654956Y-66385468D01*
X112621183Y-66413185D01*
X112510589Y-66547944D01*
X112428411Y-66701690D01*
X112420621Y-66727371D01*
X112411502Y-66757432D01*
X112378599Y-66648966D01*
X112240706Y-66390986D01*
X112055134Y-66164866D01*
X111829014Y-65979294D01*
X111774209Y-65950000D01*
X111829014Y-65920706D01*
X112055134Y-65735134D01*
X112240706Y-65509014D01*
X112378599Y-65251034D01*
X112463513Y-64971111D01*
X112492185Y-64680000D01*
X112463513Y-64388889D01*
X112378599Y-64108966D01*
X112240706Y-63850986D01*
X112055134Y-63624866D01*
X112025313Y-63600393D01*
X112094180Y-63579502D01*
X112204494Y-63520537D01*
X112301185Y-63441185D01*
X112380537Y-63344494D01*
X112439502Y-63234180D01*
X112475812Y-63114482D01*
X112488072Y-62990000D01*
X112485000Y-62425750D01*
X112326250Y-62267000D01*
X111127000Y-62267000D01*
X111127000Y-62287000D01*
X110873000Y-62287000D01*
X110873000Y-62267000D01*
X109673750Y-62267000D01*
X109515000Y-62425750D01*
X109511928Y-62990000D01*
X109524188Y-63114482D01*
X109560498Y-63234180D01*
X109619463Y-63344494D01*
X109698815Y-63441185D01*
X109795506Y-63520537D01*
X109905820Y-63579502D01*
X109974687Y-63600393D01*
X109944866Y-63624866D01*
X109759294Y-63850986D01*
X109621401Y-64108966D01*
X109536487Y-64388889D01*
X109507815Y-64680000D01*
X107160000Y-64680000D01*
X107160000Y-61290000D01*
X109511928Y-61290000D01*
X109515000Y-61854250D01*
X109673750Y-62013000D01*
X110873000Y-62013000D01*
X110873000Y-60813750D01*
X111127000Y-60813750D01*
X111127000Y-62013000D01*
X112326250Y-62013000D01*
X112485000Y-61854250D01*
X112488072Y-61290000D01*
X112475812Y-61165518D01*
X112439502Y-61045820D01*
X112380537Y-60935506D01*
X112301185Y-60838815D01*
X112204494Y-60759463D01*
X112094180Y-60700498D01*
X111974482Y-60664188D01*
X111850000Y-60651928D01*
X111285750Y-60655000D01*
X111127000Y-60813750D01*
X110873000Y-60813750D01*
X110714250Y-60655000D01*
X110150000Y-60651928D01*
X110025518Y-60664188D01*
X109905820Y-60700498D01*
X109795506Y-60759463D01*
X109698815Y-60838815D01*
X109619463Y-60935506D01*
X109560498Y-61045820D01*
X109524188Y-61165518D01*
X109511928Y-61290000D01*
X107160000Y-61290000D01*
X107160000Y-57627000D01*
X147840001Y-57627000D01*
X147840000Y-133373000D01*
X147840000Y-133373000D01*
G37*
X147840000Y-133373000D02*
X134285000Y-133373000D01*
X134285000Y-133210000D01*
X125715000Y-133210000D01*
X125715000Y-133373000D01*
X107160000Y-133373000D01*
X107160000Y-108540000D01*
X109507815Y-108540000D01*
X109536487Y-108831111D01*
X109621401Y-109111034D01*
X109759294Y-109369014D01*
X109944866Y-109595134D01*
X110170986Y-109780706D01*
X110225791Y-109810000D01*
X110170986Y-109839294D01*
X109944866Y-110024866D01*
X109759294Y-110250986D01*
X109621401Y-110508966D01*
X109536487Y-110788889D01*
X109507815Y-111080000D01*
X109536487Y-111371111D01*
X109621401Y-111651034D01*
X109759294Y-111909014D01*
X109944866Y-112135134D01*
X110170986Y-112320706D01*
X110225791Y-112350000D01*
X110170986Y-112379294D01*
X109944866Y-112564866D01*
X109759294Y-112790986D01*
X109621401Y-113048966D01*
X109536487Y-113328889D01*
X109507815Y-113620000D01*
X109536487Y-113911111D01*
X109621401Y-114191034D01*
X109759294Y-114449014D01*
X109944866Y-114675134D01*
X110170986Y-114860706D01*
X110225791Y-114890000D01*
X110170986Y-114919294D01*
X109944866Y-115104866D01*
X109759294Y-115330986D01*
X109621401Y-115588966D01*
X109536487Y-115868889D01*
X109507815Y-116160000D01*
X109536487Y-116451111D01*
X109621401Y-116731034D01*
X109759294Y-116989014D01*
X109944866Y-117215134D01*
X110170986Y-117400706D01*
X110225791Y-117430000D01*
X110170986Y-117459294D01*
X109944866Y-117644866D01*
X109759294Y-117870986D01*
X109621401Y-118128966D01*
X109536487Y-118408889D01*
X109507815Y-118700000D01*
X109536487Y-118991111D01*
X109621401Y-119271034D01*
X109759294Y-119529014D01*
X109944866Y-119755134D01*
X110170986Y-119940706D01*
X110225791Y-119970000D01*
X110170986Y-119999294D01*
X109944866Y-120184866D01*
X109759294Y-120410986D01*
X109621401Y-120668966D01*
X109536487Y-120948889D01*
X109507815Y-121240000D01*
X109536487Y-121531111D01*
X109621401Y-121811034D01*
X109759294Y-122069014D01*
X109944866Y-122295134D01*
X110170986Y-122480706D01*
X110225791Y-122510000D01*
X110170986Y-122539294D01*
X109944866Y-122724866D01*
X109759294Y-122950986D01*
X109621401Y-123208966D01*
X109536487Y-123488889D01*
X109507815Y-123780000D01*
X109536487Y-124071111D01*
X109621401Y-124351034D01*
X109759294Y-124609014D01*
X109944866Y-124835134D01*
X110170986Y-125020706D01*
X110225791Y-125050000D01*
X110170986Y-125079294D01*
X109944866Y-125264866D01*
X109759294Y-125490986D01*
X109621401Y-125748966D01*
X109536487Y-126028889D01*
X109507815Y-126320000D01*
X109536487Y-126611111D01*
X109621401Y-126891034D01*
X109759294Y-127149014D01*
X109944866Y-127375134D01*
X110170986Y-127560706D01*
X110225791Y-127590000D01*
X110170986Y-127619294D01*
X109944866Y-127804866D01*
X109759294Y-128030986D01*
X109621401Y-128288966D01*
X109536487Y-128568889D01*
X109507815Y-128860000D01*
X109536487Y-129151111D01*
X109621401Y-129431034D01*
X109759294Y-129689014D01*
X109944866Y-129915134D01*
X110170986Y-130100706D01*
X110428966Y-130238599D01*
X110708889Y-130323513D01*
X110927050Y-130345000D01*
X111072950Y-130345000D01*
X111291111Y-130323513D01*
X111571034Y-130238599D01*
X111829014Y-130100706D01*
X112055134Y-129915134D01*
X112240706Y-129689014D01*
X112378599Y-129431034D01*
X112463513Y-129151111D01*
X112492185Y-128860000D01*
X112463513Y-128568889D01*
X112378599Y-128288966D01*
X112240706Y-128030986D01*
X112055134Y-127804866D01*
X111829014Y-127619294D01*
X111774209Y-127590000D01*
X111829014Y-127560706D01*
X112055134Y-127375134D01*
X112240706Y-127149014D01*
X112378599Y-126891034D01*
X112463513Y-126611111D01*
X112492185Y-126320000D01*
X112463513Y-126028889D01*
X112378599Y-125748966D01*
X112240706Y-125490986D01*
X112055134Y-125264866D01*
X111829014Y-125079294D01*
X111774209Y-125050000D01*
X111829014Y-125020706D01*
X112055134Y-124835134D01*
X112240706Y-124609014D01*
X112378599Y-124351034D01*
X112463513Y-124071111D01*
X112492185Y-123780000D01*
X112463513Y-123488889D01*
X112378599Y-123208966D01*
X112240706Y-122950986D01*
X112055134Y-122724866D01*
X111829014Y-122539294D01*
X111774209Y-122510000D01*
X111829014Y-122480706D01*
X112055134Y-122295134D01*
X112240706Y-122069014D01*
X112378599Y-121811034D01*
X112463513Y-121531111D01*
X112492185Y-121240000D01*
X112463513Y-120948889D01*
X112378599Y-120668966D01*
X112240706Y-120410986D01*
X112055134Y-120184866D01*
X111829014Y-119999294D01*
X111774209Y-119970000D01*
X111829014Y-119940706D01*
X112055134Y-119755134D01*
X112240706Y-119529014D01*
X112378599Y-119271034D01*
X112463513Y-118991111D01*
X112492185Y-118700000D01*
X112463513Y-118408889D01*
X112378599Y-118128966D01*
X112240706Y-117870986D01*
X112055134Y-117644866D01*
X111829014Y-117459294D01*
X111774209Y-117430000D01*
X111829014Y-117400706D01*
X112027948Y-117237445D01*
X114365000Y-119574498D01*
X114365001Y-120206523D01*
X114365000Y-123706531D01*
X114360719Y-123750000D01*
X114365000Y-123793469D01*
X114365000Y-123793476D01*
X114377805Y-123923489D01*
X114428411Y-124090312D01*
X114510589Y-124244058D01*
X114621183Y-124378817D01*
X114654956Y-124406534D01*
X115593470Y-125345049D01*
X115621183Y-125378817D01*
X115654951Y-125406530D01*
X115654953Y-125406532D01*
X115755941Y-125489411D01*
X115909686Y-125571589D01*
X116076510Y-125622195D01*
X116206523Y-125635000D01*
X116206531Y-125635000D01*
X116250000Y-125639281D01*
X116293469Y-125635000D01*
X123176315Y-125635000D01*
X123367114Y-125825799D01*
X123593957Y-125977371D01*
X123846011Y-126081775D01*
X124113589Y-126135000D01*
X124386411Y-126135000D01*
X124653989Y-126081775D01*
X124906043Y-125977371D01*
X125132886Y-125825799D01*
X125325799Y-125632886D01*
X125477371Y-125406043D01*
X125581775Y-125153989D01*
X125635000Y-124886411D01*
X125635000Y-124613589D01*
X125581775Y-124346011D01*
X125477371Y-124093957D01*
X125325799Y-123867114D01*
X125132886Y-123674201D01*
X124906043Y-123522629D01*
X124653989Y-123418225D01*
X124386411Y-123365000D01*
X124113589Y-123365000D01*
X123846011Y-123418225D01*
X123593957Y-123522629D01*
X123367114Y-123674201D01*
X123176315Y-123865000D01*
X116616579Y-123865000D01*
X116135000Y-123383422D01*
X116135000Y-121700000D01*
X141061928Y-121700000D01*
X141061928Y-124300000D01*
X141074188Y-124424482D01*
X141110498Y-124544180D01*
X141169463Y-124654494D01*
X141248815Y-124751185D01*
X141345506Y-124830537D01*
X141455820Y-124889502D01*
X141575518Y-124925812D01*
X141700000Y-124938072D01*
X144300000Y-124938072D01*
X144424482Y-124925812D01*
X144544180Y-124889502D01*
X144654494Y-124830537D01*
X144751185Y-124751185D01*
X144830537Y-124654494D01*
X144889502Y-124544180D01*
X144925812Y-124424482D01*
X144938072Y-124300000D01*
X144938072Y-121700000D01*
X144925812Y-121575518D01*
X144889502Y-121455820D01*
X144830537Y-121345506D01*
X144751185Y-121248815D01*
X144654494Y-121169463D01*
X144544180Y-121110498D01*
X144424482Y-121074188D01*
X144300000Y-121061928D01*
X141700000Y-121061928D01*
X141575518Y-121074188D01*
X141455820Y-121110498D01*
X141345506Y-121169463D01*
X141248815Y-121248815D01*
X141169463Y-121345506D01*
X141110498Y-121455820D01*
X141074188Y-121575518D01*
X141061928Y-121700000D01*
X116135000Y-121700000D01*
X116135000Y-119251384D01*
X116139281Y-119207918D01*
X116135000Y-119164452D01*
X116135000Y-119164442D01*
X116122195Y-119034429D01*
X116071589Y-118867606D01*
X116069442Y-118863589D01*
X124865000Y-118863589D01*
X124865000Y-119136411D01*
X124918225Y-119403989D01*
X125022629Y-119656043D01*
X125174201Y-119882886D01*
X125367114Y-120075799D01*
X125593957Y-120227371D01*
X125846011Y-120331775D01*
X126113589Y-120385000D01*
X126386411Y-120385000D01*
X126653989Y-120331775D01*
X126906043Y-120227371D01*
X127044286Y-120135000D01*
X136694249Y-120135000D01*
X136750000Y-120140491D01*
X136805751Y-120135000D01*
X136805752Y-120135000D01*
X136972499Y-120118577D01*
X137186447Y-120053676D01*
X137383623Y-119948284D01*
X137556449Y-119806449D01*
X137591996Y-119763135D01*
X137966988Y-119388143D01*
X138763140Y-118591992D01*
X138806449Y-118556449D01*
X138948284Y-118383623D01*
X139053676Y-118186447D01*
X139118577Y-117972499D01*
X139134638Y-117809419D01*
X141065000Y-117809419D01*
X141065000Y-118190581D01*
X141139361Y-118564419D01*
X141285225Y-118916566D01*
X141496987Y-119233491D01*
X141766509Y-119503013D01*
X142083434Y-119714775D01*
X142435581Y-119860639D01*
X142809419Y-119935000D01*
X143190581Y-119935000D01*
X143564419Y-119860639D01*
X143916566Y-119714775D01*
X144233491Y-119503013D01*
X144503013Y-119233491D01*
X144714775Y-118916566D01*
X144860639Y-118564419D01*
X144935000Y-118190581D01*
X144935000Y-117809419D01*
X144860639Y-117435581D01*
X144714775Y-117083434D01*
X144503013Y-116766509D01*
X144233491Y-116496987D01*
X143916566Y-116285225D01*
X143564419Y-116139361D01*
X143190581Y-116065000D01*
X142809419Y-116065000D01*
X142435581Y-116139361D01*
X142083434Y-116285225D01*
X141766509Y-116496987D01*
X141496987Y-116766509D01*
X141285225Y-117083434D01*
X141139361Y-117435581D01*
X141065000Y-117809419D01*
X139134638Y-117809419D01*
X139135000Y-117805752D01*
X139135000Y-117805751D01*
X139140491Y-117750000D01*
X139135000Y-117694248D01*
X139135000Y-115220131D01*
X140220133Y-114135000D01*
X141431178Y-114135000D01*
X141496987Y-114233491D01*
X141766509Y-114503013D01*
X142083434Y-114714775D01*
X142435581Y-114860639D01*
X142809419Y-114935000D01*
X143190581Y-114935000D01*
X143564419Y-114860639D01*
X143916566Y-114714775D01*
X144233491Y-114503013D01*
X144503013Y-114233491D01*
X144714775Y-113916566D01*
X144860639Y-113564419D01*
X144935000Y-113190581D01*
X144935000Y-112809419D01*
X144860639Y-112435581D01*
X144714775Y-112083434D01*
X144503013Y-111766509D01*
X144233491Y-111496987D01*
X143916566Y-111285225D01*
X143564419Y-111139361D01*
X143190581Y-111065000D01*
X142809419Y-111065000D01*
X142435581Y-111139361D01*
X142083434Y-111285225D01*
X141766509Y-111496987D01*
X141496987Y-111766509D01*
X141431178Y-111865000D01*
X139805752Y-111865000D01*
X139750000Y-111859509D01*
X139527501Y-111881423D01*
X139313553Y-111946324D01*
X139116377Y-112051716D01*
X138986856Y-112158011D01*
X138986855Y-112158012D01*
X138943551Y-112193551D01*
X138908013Y-112236854D01*
X137236860Y-113908009D01*
X137193552Y-113943551D01*
X137051717Y-114116377D01*
X137041763Y-114135000D01*
X136946324Y-114313554D01*
X136881423Y-114527502D01*
X136859509Y-114750000D01*
X136865001Y-114805761D01*
X136865000Y-117279868D01*
X136361857Y-117783012D01*
X136279869Y-117865000D01*
X127044286Y-117865000D01*
X126906043Y-117772629D01*
X126653989Y-117668225D01*
X126386411Y-117615000D01*
X126113589Y-117615000D01*
X125846011Y-117668225D01*
X125593957Y-117772629D01*
X125367114Y-117924201D01*
X125174201Y-118117114D01*
X125022629Y-118343957D01*
X124918225Y-118596011D01*
X124865000Y-118863589D01*
X116069442Y-118863589D01*
X115989411Y-118713860D01*
X115878817Y-118579102D01*
X115845050Y-118551390D01*
X112858615Y-115564956D01*
X112830898Y-115531183D01*
X112696140Y-115420589D01*
X112542394Y-115338411D01*
X112375571Y-115287805D01*
X112245558Y-115275000D01*
X112245550Y-115275000D01*
X112202081Y-115270719D01*
X112192056Y-115271706D01*
X112055134Y-115104866D01*
X111829014Y-114919294D01*
X111774209Y-114890000D01*
X111829014Y-114860706D01*
X112055134Y-114675134D01*
X112240706Y-114449014D01*
X112378599Y-114191034D01*
X112463513Y-113911111D01*
X112492185Y-113620000D01*
X112491554Y-113613589D01*
X115865000Y-113613589D01*
X115865000Y-113886411D01*
X115918225Y-114153989D01*
X116022629Y-114406043D01*
X116174201Y-114632886D01*
X116367114Y-114825799D01*
X116593957Y-114977371D01*
X116846011Y-115081775D01*
X117113589Y-115135000D01*
X117386411Y-115135000D01*
X117653989Y-115081775D01*
X117906043Y-114977371D01*
X118132886Y-114825799D01*
X118325799Y-114632886D01*
X118477371Y-114406043D01*
X118581775Y-114153989D01*
X118635000Y-113886411D01*
X118635000Y-113616578D01*
X120061578Y-112190001D01*
X121875499Y-112190001D01*
X121772629Y-112343957D01*
X121668225Y-112596011D01*
X121615000Y-112863589D01*
X121615000Y-113136411D01*
X121668225Y-113403989D01*
X121772629Y-113656043D01*
X121924201Y-113882886D01*
X122117114Y-114075799D01*
X122343957Y-114227371D01*
X122596011Y-114331775D01*
X122759079Y-114364212D01*
X123158013Y-114763145D01*
X123193551Y-114806449D01*
X123236854Y-114841987D01*
X123236856Y-114841989D01*
X123366377Y-114948284D01*
X123563553Y-115053676D01*
X123777501Y-115118577D01*
X124000000Y-115140491D01*
X124055752Y-115135000D01*
X135444249Y-115135000D01*
X135500000Y-115140491D01*
X135555751Y-115135000D01*
X135555752Y-115135000D01*
X135722499Y-115118577D01*
X135936447Y-115053676D01*
X136133623Y-114948284D01*
X136306449Y-114806449D01*
X136341996Y-114763135D01*
X141684314Y-109420818D01*
X141766509Y-109503013D01*
X142083434Y-109714775D01*
X142435581Y-109860639D01*
X142809419Y-109935000D01*
X143190581Y-109935000D01*
X143564419Y-109860639D01*
X143916566Y-109714775D01*
X144233491Y-109503013D01*
X144503013Y-109233491D01*
X144714775Y-108916566D01*
X144860639Y-108564419D01*
X144935000Y-108190581D01*
X144935000Y-107809419D01*
X144860639Y-107435581D01*
X144714775Y-107083434D01*
X144503013Y-106766509D01*
X144233491Y-106496987D01*
X143916566Y-106285225D01*
X143564419Y-106139361D01*
X143190581Y-106065000D01*
X142809419Y-106065000D01*
X142435581Y-106139361D01*
X142083434Y-106285225D01*
X141766509Y-106496987D01*
X141496987Y-106766509D01*
X141430257Y-106866378D01*
X141277501Y-106881423D01*
X141063553Y-106946324D01*
X140866377Y-107051716D01*
X140693551Y-107193551D01*
X140658009Y-107236859D01*
X135029869Y-112865000D01*
X133533685Y-112865000D01*
X133575799Y-112822886D01*
X133727371Y-112596043D01*
X133831775Y-112343989D01*
X133885000Y-112076411D01*
X133885000Y-111803589D01*
X133831775Y-111536011D01*
X133727371Y-111283957D01*
X133575799Y-111057114D01*
X133382886Y-110864201D01*
X133156043Y-110712629D01*
X132903989Y-110608225D01*
X132636411Y-110555000D01*
X132363589Y-110555000D01*
X132096011Y-110608225D01*
X131843957Y-110712629D01*
X131652281Y-110840703D01*
X131521535Y-110709957D01*
X131493818Y-110676184D01*
X131359060Y-110565590D01*
X131205314Y-110483412D01*
X131038491Y-110432806D01*
X130908478Y-110420001D01*
X130908470Y-110420001D01*
X130865001Y-110415720D01*
X130821532Y-110420001D01*
X119738468Y-110420001D01*
X119694999Y-110415720D01*
X119651530Y-110420001D01*
X119651522Y-110420001D01*
X119521509Y-110432806D01*
X119354685Y-110483412D01*
X119200940Y-110565590D01*
X119099952Y-110648469D01*
X119099950Y-110648471D01*
X119066182Y-110676184D01*
X119038469Y-110709952D01*
X117383422Y-112365000D01*
X117113589Y-112365000D01*
X116846011Y-112418225D01*
X116593957Y-112522629D01*
X116367114Y-112674201D01*
X116174201Y-112867114D01*
X116022629Y-113093957D01*
X115918225Y-113346011D01*
X115865000Y-113613589D01*
X112491554Y-113613589D01*
X112463513Y-113328889D01*
X112378599Y-113048966D01*
X112240706Y-112790986D01*
X112055134Y-112564866D01*
X111829014Y-112379294D01*
X111774209Y-112350000D01*
X111829014Y-112320706D01*
X112055134Y-112135134D01*
X112240706Y-111909014D01*
X112378599Y-111651034D01*
X112463513Y-111371111D01*
X112492185Y-111080000D01*
X112463513Y-110788889D01*
X112378599Y-110508966D01*
X112240706Y-110250986D01*
X112055134Y-110024866D01*
X111829014Y-109839294D01*
X111774209Y-109810000D01*
X111829014Y-109780706D01*
X112055134Y-109595134D01*
X112240706Y-109369014D01*
X112378599Y-109111034D01*
X112463513Y-108831111D01*
X112492185Y-108540000D01*
X112463513Y-108248889D01*
X112378599Y-107968966D01*
X112240706Y-107710986D01*
X112055134Y-107484866D01*
X112025313Y-107460393D01*
X112094180Y-107439502D01*
X112204494Y-107380537D01*
X112301185Y-107301185D01*
X112380537Y-107204494D01*
X112439502Y-107094180D01*
X112475812Y-106974482D01*
X112488072Y-106850000D01*
X112485000Y-106285750D01*
X112326250Y-106127000D01*
X111127000Y-106127000D01*
X111127000Y-106147000D01*
X110873000Y-106147000D01*
X110873000Y-106127000D01*
X109673750Y-106127000D01*
X109515000Y-106285750D01*
X109511928Y-106850000D01*
X109524188Y-106974482D01*
X109560498Y-107094180D01*
X109619463Y-107204494D01*
X109698815Y-107301185D01*
X109795506Y-107380537D01*
X109905820Y-107439502D01*
X109974687Y-107460393D01*
X109944866Y-107484866D01*
X109759294Y-107710986D01*
X109621401Y-107968966D01*
X109536487Y-108248889D01*
X109507815Y-108540000D01*
X107160000Y-108540000D01*
X107160000Y-105150000D01*
X109511928Y-105150000D01*
X109515000Y-105714250D01*
X109673750Y-105873000D01*
X110873000Y-105873000D01*
X110873000Y-104673750D01*
X111127000Y-104673750D01*
X111127000Y-105873000D01*
X112326250Y-105873000D01*
X112485000Y-105714250D01*
X112488072Y-105150000D01*
X112475812Y-105025518D01*
X112439502Y-104905820D01*
X112380537Y-104795506D01*
X112301185Y-104698815D01*
X112204494Y-104619463D01*
X112094180Y-104560498D01*
X111974482Y-104524188D01*
X111850000Y-104511928D01*
X111285750Y-104515000D01*
X111127000Y-104673750D01*
X110873000Y-104673750D01*
X110714250Y-104515000D01*
X110150000Y-104511928D01*
X110025518Y-104524188D01*
X109905820Y-104560498D01*
X109795506Y-104619463D01*
X109698815Y-104698815D01*
X109619463Y-104795506D01*
X109560498Y-104905820D01*
X109524188Y-105025518D01*
X109511928Y-105150000D01*
X107160000Y-105150000D01*
X107160000Y-100900000D01*
X108921928Y-100900000D01*
X108934188Y-101024482D01*
X108970498Y-101144180D01*
X109029463Y-101254494D01*
X109108815Y-101351185D01*
X109205506Y-101430537D01*
X109315820Y-101489502D01*
X109435518Y-101525812D01*
X109560000Y-101538072D01*
X110174250Y-101535000D01*
X110333000Y-101376250D01*
X110333000Y-100127000D01*
X109083750Y-100127000D01*
X108925000Y-100285750D01*
X108921928Y-100900000D01*
X107160000Y-100900000D01*
X107160000Y-99100000D01*
X108921928Y-99100000D01*
X108925000Y-99714250D01*
X109083750Y-99873000D01*
X110333000Y-99873000D01*
X110333000Y-98623750D01*
X110587000Y-98623750D01*
X110587000Y-99873000D01*
X110607000Y-99873000D01*
X110607000Y-100127000D01*
X110587000Y-100127000D01*
X110587000Y-101376250D01*
X110745750Y-101535000D01*
X111360000Y-101538072D01*
X111484482Y-101525812D01*
X111604180Y-101489502D01*
X111714494Y-101430537D01*
X111811185Y-101351185D01*
X111890537Y-101254494D01*
X111949502Y-101144180D01*
X111955056Y-101125873D01*
X112021495Y-101192312D01*
X112272905Y-101360299D01*
X112552257Y-101476011D01*
X112848816Y-101535000D01*
X113151184Y-101535000D01*
X113447743Y-101476011D01*
X113727095Y-101360299D01*
X113978505Y-101192312D01*
X114192312Y-100978505D01*
X114360299Y-100727095D01*
X114476011Y-100447743D01*
X114535000Y-100151184D01*
X114535000Y-99848816D01*
X114476011Y-99552257D01*
X114360299Y-99272905D01*
X114192312Y-99021495D01*
X113978505Y-98807688D01*
X113727095Y-98639701D01*
X113447743Y-98523989D01*
X113151184Y-98465000D01*
X112848816Y-98465000D01*
X112552257Y-98523989D01*
X112272905Y-98639701D01*
X112021495Y-98807688D01*
X111955056Y-98874127D01*
X111949502Y-98855820D01*
X111890537Y-98745506D01*
X111811185Y-98648815D01*
X111714494Y-98569463D01*
X111604180Y-98510498D01*
X111484482Y-98474188D01*
X111360000Y-98461928D01*
X110745750Y-98465000D01*
X110587000Y-98623750D01*
X110333000Y-98623750D01*
X110174250Y-98465000D01*
X109560000Y-98461928D01*
X109435518Y-98474188D01*
X109315820Y-98510498D01*
X109205506Y-98569463D01*
X109108815Y-98648815D01*
X109029463Y-98745506D01*
X108970498Y-98855820D01*
X108934188Y-98975518D01*
X108921928Y-99100000D01*
X107160000Y-99100000D01*
X107160000Y-95896890D01*
X109558524Y-95896890D01*
X109603175Y-96044099D01*
X109728359Y-96306920D01*
X109902412Y-96540269D01*
X110118645Y-96735178D01*
X110368748Y-96884157D01*
X110643109Y-96981481D01*
X110873000Y-96860814D01*
X110873000Y-95667000D01*
X111127000Y-95667000D01*
X111127000Y-96860814D01*
X111356891Y-96981481D01*
X111631252Y-96884157D01*
X111881355Y-96735178D01*
X112097588Y-96540269D01*
X112271641Y-96306920D01*
X112396825Y-96044099D01*
X112441476Y-95896890D01*
X112320155Y-95667000D01*
X111127000Y-95667000D01*
X110873000Y-95667000D01*
X109679845Y-95667000D01*
X109558524Y-95896890D01*
X107160000Y-95896890D01*
X107160000Y-92150000D01*
X109511928Y-92150000D01*
X109511928Y-93850000D01*
X109524188Y-93974482D01*
X109560498Y-94094180D01*
X109619463Y-94204494D01*
X109698815Y-94301185D01*
X109795506Y-94380537D01*
X109905820Y-94439502D01*
X109986466Y-94463966D01*
X109902412Y-94539731D01*
X109728359Y-94773080D01*
X109603175Y-95035901D01*
X109558524Y-95183110D01*
X109679845Y-95413000D01*
X110873000Y-95413000D01*
X110873000Y-95393000D01*
X111127000Y-95393000D01*
X111127000Y-95413000D01*
X112320155Y-95413000D01*
X112441476Y-95183110D01*
X112396825Y-95035901D01*
X112271641Y-94773080D01*
X112097588Y-94539731D01*
X112013534Y-94463966D01*
X112094180Y-94439502D01*
X112204494Y-94380537D01*
X112301185Y-94301185D01*
X112380537Y-94204494D01*
X112439502Y-94094180D01*
X112475812Y-93974482D01*
X112488072Y-93850000D01*
X112488072Y-92863589D01*
X113615000Y-92863589D01*
X113615000Y-93136411D01*
X113668225Y-93403989D01*
X113772629Y-93656043D01*
X113924201Y-93882886D01*
X114117114Y-94075799D01*
X114343957Y-94227371D01*
X114596011Y-94331775D01*
X114863589Y-94385000D01*
X114956645Y-94385000D01*
X118240001Y-97668357D01*
X118240000Y-105874446D01*
X118227371Y-105843957D01*
X118075799Y-105617114D01*
X117882886Y-105424201D01*
X117656043Y-105272629D01*
X117403989Y-105168225D01*
X117136411Y-105115000D01*
X117135000Y-105115000D01*
X117135000Y-101573685D01*
X117325799Y-101382886D01*
X117477371Y-101156043D01*
X117581775Y-100903989D01*
X117635000Y-100636411D01*
X117635000Y-100363589D01*
X117581775Y-100096011D01*
X117477371Y-99843957D01*
X117325799Y-99617114D01*
X117132886Y-99424201D01*
X116906043Y-99272629D01*
X116653989Y-99168225D01*
X116386411Y-99115000D01*
X116113589Y-99115000D01*
X115846011Y-99168225D01*
X115593957Y-99272629D01*
X115367114Y-99424201D01*
X115174201Y-99617114D01*
X115022629Y-99843957D01*
X114918225Y-100096011D01*
X114865000Y-100363589D01*
X114865000Y-100636411D01*
X114918225Y-100903989D01*
X115022629Y-101156043D01*
X115174201Y-101382886D01*
X115365000Y-101573685D01*
X115365001Y-105706521D01*
X115360719Y-105750000D01*
X115377805Y-105923490D01*
X115428412Y-106090313D01*
X115510590Y-106244059D01*
X115593468Y-106345046D01*
X115593471Y-106345049D01*
X115615000Y-106371282D01*
X115615000Y-106636411D01*
X115668225Y-106903989D01*
X115772629Y-107156043D01*
X115924201Y-107382886D01*
X116117114Y-107575799D01*
X116343957Y-107727371D01*
X116596011Y-107831775D01*
X116863589Y-107885000D01*
X117136411Y-107885000D01*
X117403989Y-107831775D01*
X117656043Y-107727371D01*
X117882886Y-107575799D01*
X117899389Y-107559296D01*
X117918225Y-107653989D01*
X118022629Y-107906043D01*
X118174201Y-108132886D01*
X118367114Y-108325799D01*
X118593957Y-108477371D01*
X118846011Y-108581775D01*
X119113589Y-108635000D01*
X119386411Y-108635000D01*
X119653989Y-108581775D01*
X119906043Y-108477371D01*
X120044286Y-108385000D01*
X135926315Y-108385000D01*
X136117114Y-108575799D01*
X136343957Y-108727371D01*
X136596011Y-108831775D01*
X136863589Y-108885000D01*
X137136411Y-108885000D01*
X137403989Y-108831775D01*
X137656043Y-108727371D01*
X137882886Y-108575799D01*
X138075799Y-108382886D01*
X138227371Y-108156043D01*
X138331775Y-107903989D01*
X138385000Y-107636411D01*
X138385000Y-107363589D01*
X138331775Y-107096011D01*
X138227371Y-106843957D01*
X138075799Y-106617114D01*
X137882886Y-106424201D01*
X137656043Y-106272629D01*
X137403989Y-106168225D01*
X137136411Y-106115000D01*
X136863589Y-106115000D01*
X136596011Y-106168225D01*
X136343957Y-106272629D01*
X136117114Y-106424201D01*
X135926315Y-106615000D01*
X120486087Y-106615000D01*
X120477371Y-106593957D01*
X120325799Y-106367114D01*
X120260000Y-106301315D01*
X120260000Y-102570512D01*
X124059783Y-102570512D01*
X124101213Y-102850130D01*
X124196397Y-103116292D01*
X124263329Y-103241514D01*
X124507298Y-103313097D01*
X125320395Y-102500000D01*
X124507298Y-101686903D01*
X124263329Y-101758486D01*
X124142429Y-102013996D01*
X124073700Y-102288184D01*
X124059783Y-102570512D01*
X120260000Y-102570512D01*
X120260000Y-101507298D01*
X124686903Y-101507298D01*
X125500000Y-102320395D01*
X125514143Y-102306253D01*
X125693748Y-102485858D01*
X125679605Y-102500000D01*
X125693748Y-102514143D01*
X125514143Y-102693748D01*
X125500000Y-102679605D01*
X124686903Y-103492702D01*
X124758486Y-103736671D01*
X125013996Y-103857571D01*
X125288184Y-103926300D01*
X125570512Y-103940217D01*
X125850130Y-103898787D01*
X126116292Y-103803603D01*
X126238309Y-103738384D01*
X126248815Y-103751185D01*
X126345506Y-103830537D01*
X126455820Y-103889502D01*
X126575518Y-103925812D01*
X126700000Y-103938072D01*
X128300000Y-103938072D01*
X128424482Y-103925812D01*
X128544180Y-103889502D01*
X128654494Y-103830537D01*
X128751185Y-103751185D01*
X128830537Y-103654494D01*
X128889502Y-103544180D01*
X128925812Y-103424482D01*
X128938072Y-103300000D01*
X128938072Y-101700000D01*
X128925812Y-101575518D01*
X128889502Y-101455820D01*
X128830537Y-101345506D01*
X128751185Y-101248815D01*
X128654494Y-101169463D01*
X128544180Y-101110498D01*
X128424482Y-101074188D01*
X128300000Y-101061928D01*
X126700000Y-101061928D01*
X126575518Y-101074188D01*
X126455820Y-101110498D01*
X126345506Y-101169463D01*
X126248815Y-101248815D01*
X126238193Y-101261758D01*
X125986004Y-101142429D01*
X125711816Y-101073700D01*
X125429488Y-101059783D01*
X125149870Y-101101213D01*
X124883708Y-101196397D01*
X124758486Y-101263329D01*
X124686903Y-101507298D01*
X120260000Y-101507298D01*
X120260000Y-99863589D01*
X128115000Y-99863589D01*
X128115000Y-100136411D01*
X128168225Y-100403989D01*
X128272629Y-100656043D01*
X128424201Y-100882886D01*
X128617114Y-101075799D01*
X128843957Y-101227371D01*
X129096011Y-101331775D01*
X129363589Y-101385000D01*
X129636411Y-101385000D01*
X129903989Y-101331775D01*
X130156043Y-101227371D01*
X130347719Y-101099297D01*
X132115001Y-102866580D01*
X132115001Y-102926314D01*
X131924201Y-103117114D01*
X131772629Y-103343957D01*
X131668225Y-103596011D01*
X131615000Y-103863589D01*
X131615000Y-104136411D01*
X131668225Y-104403989D01*
X131772629Y-104656043D01*
X131924201Y-104882886D01*
X132117114Y-105075799D01*
X132343957Y-105227371D01*
X132596011Y-105331775D01*
X132863589Y-105385000D01*
X133136411Y-105385000D01*
X133403989Y-105331775D01*
X133656043Y-105227371D01*
X133882886Y-105075799D01*
X134075799Y-104882886D01*
X134227371Y-104656043D01*
X134331775Y-104403989D01*
X134385000Y-104136411D01*
X134385000Y-103863589D01*
X134331775Y-103596011D01*
X134227371Y-103343957D01*
X134075799Y-103117114D01*
X133885000Y-102926315D01*
X133885000Y-102543469D01*
X133889281Y-102500000D01*
X133885000Y-102456531D01*
X133885000Y-102456523D01*
X133872195Y-102326510D01*
X133821589Y-102159687D01*
X133739411Y-102005941D01*
X133628817Y-101871183D01*
X133595049Y-101843470D01*
X131156534Y-99404956D01*
X131128817Y-99371183D01*
X131042082Y-99300000D01*
X141061928Y-99300000D01*
X141074188Y-99424482D01*
X141110498Y-99544180D01*
X141169463Y-99654494D01*
X141248815Y-99751185D01*
X141345506Y-99830537D01*
X141455820Y-99889502D01*
X141575518Y-99925812D01*
X141700000Y-99938072D01*
X142714250Y-99935000D01*
X142873000Y-99776250D01*
X142873000Y-98127000D01*
X143127000Y-98127000D01*
X143127000Y-99776250D01*
X143285750Y-99935000D01*
X144300000Y-99938072D01*
X144424482Y-99925812D01*
X144544180Y-99889502D01*
X144654494Y-99830537D01*
X144751185Y-99751185D01*
X144830537Y-99654494D01*
X144889502Y-99544180D01*
X144925812Y-99424482D01*
X144938072Y-99300000D01*
X144935000Y-98285750D01*
X144776250Y-98127000D01*
X143127000Y-98127000D01*
X142873000Y-98127000D01*
X141223750Y-98127000D01*
X141065000Y-98285750D01*
X141061928Y-99300000D01*
X131042082Y-99300000D01*
X130994059Y-99260589D01*
X130840313Y-99178411D01*
X130673490Y-99127805D01*
X130576564Y-99118259D01*
X130575799Y-99117114D01*
X130382886Y-98924201D01*
X130156043Y-98772629D01*
X129903989Y-98668225D01*
X129636411Y-98615000D01*
X129363589Y-98615000D01*
X129096011Y-98668225D01*
X128843957Y-98772629D01*
X128617114Y-98924201D01*
X128424201Y-99117114D01*
X128272629Y-99343957D01*
X128168225Y-99596011D01*
X128115000Y-99863589D01*
X120260000Y-99863589D01*
X120260000Y-97299608D01*
X120264886Y-97250000D01*
X120245385Y-97052005D01*
X120187632Y-96861620D01*
X120187201Y-96860814D01*
X120101245Y-96700000D01*
X141061928Y-96700000D01*
X141065000Y-97714250D01*
X141223750Y-97873000D01*
X142873000Y-97873000D01*
X142873000Y-96223750D01*
X143127000Y-96223750D01*
X143127000Y-97873000D01*
X144776250Y-97873000D01*
X144935000Y-97714250D01*
X144938072Y-96700000D01*
X144925812Y-96575518D01*
X144889502Y-96455820D01*
X144830537Y-96345506D01*
X144751185Y-96248815D01*
X144654494Y-96169463D01*
X144544180Y-96110498D01*
X144424482Y-96074188D01*
X144300000Y-96061928D01*
X143285750Y-96065000D01*
X143127000Y-96223750D01*
X142873000Y-96223750D01*
X142714250Y-96065000D01*
X141700000Y-96061928D01*
X141575518Y-96074188D01*
X141455820Y-96110498D01*
X141345506Y-96169463D01*
X141248815Y-96248815D01*
X141169463Y-96345506D01*
X141110498Y-96455820D01*
X141074188Y-96575518D01*
X141061928Y-96700000D01*
X120101245Y-96700000D01*
X120093847Y-96686160D01*
X119967633Y-96532367D01*
X119929100Y-96500744D01*
X116421058Y-92992702D01*
X131686903Y-92992702D01*
X131758486Y-93236671D01*
X132013996Y-93357571D01*
X132288184Y-93426300D01*
X132570512Y-93440217D01*
X132850130Y-93398787D01*
X133116292Y-93303603D01*
X133241514Y-93236671D01*
X133313097Y-92992702D01*
X132500000Y-92179605D01*
X131686903Y-92992702D01*
X116421058Y-92992702D01*
X116385000Y-92956645D01*
X116385000Y-92863589D01*
X116331775Y-92596011D01*
X116227371Y-92343957D01*
X116075799Y-92117114D01*
X116029197Y-92070512D01*
X131059783Y-92070512D01*
X131101213Y-92350130D01*
X131196397Y-92616292D01*
X131263329Y-92741514D01*
X131507298Y-92813097D01*
X132320395Y-92000000D01*
X132306253Y-91985858D01*
X132485858Y-91806253D01*
X132500000Y-91820395D01*
X132514143Y-91806253D01*
X132693748Y-91985858D01*
X132679605Y-92000000D01*
X133492702Y-92813097D01*
X133505237Y-92809419D01*
X141065000Y-92809419D01*
X141065000Y-93190581D01*
X141139361Y-93564419D01*
X141285225Y-93916566D01*
X141496987Y-94233491D01*
X141766509Y-94503013D01*
X142083434Y-94714775D01*
X142435581Y-94860639D01*
X142809419Y-94935000D01*
X143190581Y-94935000D01*
X143564419Y-94860639D01*
X143916566Y-94714775D01*
X144233491Y-94503013D01*
X144503013Y-94233491D01*
X144714775Y-93916566D01*
X144860639Y-93564419D01*
X144935000Y-93190581D01*
X144935000Y-92809419D01*
X144860639Y-92435581D01*
X144714775Y-92083434D01*
X144503013Y-91766509D01*
X144233491Y-91496987D01*
X143916566Y-91285225D01*
X143564419Y-91139361D01*
X143190581Y-91065000D01*
X142809419Y-91065000D01*
X142435581Y-91139361D01*
X142083434Y-91285225D01*
X141766509Y-91496987D01*
X141496987Y-91766509D01*
X141285225Y-92083434D01*
X141139361Y-92435581D01*
X141065000Y-92809419D01*
X133505237Y-92809419D01*
X133736671Y-92741514D01*
X133857571Y-92486004D01*
X133926300Y-92211816D01*
X133940217Y-91929488D01*
X133898787Y-91649870D01*
X133803603Y-91383708D01*
X133738384Y-91261691D01*
X133751185Y-91251185D01*
X133830537Y-91154494D01*
X133889502Y-91044180D01*
X133925812Y-90924482D01*
X133938072Y-90800000D01*
X133938072Y-89200000D01*
X133925812Y-89075518D01*
X133889502Y-88955820D01*
X133830537Y-88845506D01*
X133751185Y-88748815D01*
X133654494Y-88669463D01*
X133544180Y-88610498D01*
X133424482Y-88574188D01*
X133300000Y-88561928D01*
X131700000Y-88561928D01*
X131575518Y-88574188D01*
X131455820Y-88610498D01*
X131345506Y-88669463D01*
X131248815Y-88748815D01*
X131169463Y-88845506D01*
X131110498Y-88955820D01*
X131074188Y-89075518D01*
X131061928Y-89200000D01*
X131061928Y-90800000D01*
X131074188Y-90924482D01*
X131110498Y-91044180D01*
X131169463Y-91154494D01*
X131248815Y-91251185D01*
X131261758Y-91261807D01*
X131142429Y-91513996D01*
X131073700Y-91788184D01*
X131059783Y-92070512D01*
X116029197Y-92070512D01*
X115882886Y-91924201D01*
X115656043Y-91772629D01*
X115403989Y-91668225D01*
X115136411Y-91615000D01*
X114863589Y-91615000D01*
X114596011Y-91668225D01*
X114343957Y-91772629D01*
X114117114Y-91924201D01*
X113924201Y-92117114D01*
X113772629Y-92343957D01*
X113668225Y-92596011D01*
X113615000Y-92863589D01*
X112488072Y-92863589D01*
X112488072Y-92150000D01*
X112475812Y-92025518D01*
X112439502Y-91905820D01*
X112380537Y-91795506D01*
X112301185Y-91698815D01*
X112204494Y-91619463D01*
X112094180Y-91560498D01*
X111974482Y-91524188D01*
X111850000Y-91511928D01*
X110150000Y-91511928D01*
X110025518Y-91524188D01*
X109905820Y-91560498D01*
X109795506Y-91619463D01*
X109698815Y-91698815D01*
X109619463Y-91795506D01*
X109560498Y-91905820D01*
X109524188Y-92025518D01*
X109511928Y-92150000D01*
X107160000Y-92150000D01*
X107160000Y-64680000D01*
X109507815Y-64680000D01*
X109536487Y-64971111D01*
X109621401Y-65251034D01*
X109759294Y-65509014D01*
X109944866Y-65735134D01*
X110170986Y-65920706D01*
X110225791Y-65950000D01*
X110170986Y-65979294D01*
X109944866Y-66164866D01*
X109759294Y-66390986D01*
X109621401Y-66648966D01*
X109536487Y-66928889D01*
X109507815Y-67220000D01*
X109536487Y-67511111D01*
X109621401Y-67791034D01*
X109759294Y-68049014D01*
X109944866Y-68275134D01*
X110170986Y-68460706D01*
X110225791Y-68490000D01*
X110170986Y-68519294D01*
X109944866Y-68704866D01*
X109759294Y-68930986D01*
X109621401Y-69188966D01*
X109536487Y-69468889D01*
X109507815Y-69760000D01*
X109536487Y-70051111D01*
X109621401Y-70331034D01*
X109759294Y-70589014D01*
X109944866Y-70815134D01*
X110170986Y-71000706D01*
X110225791Y-71030000D01*
X110170986Y-71059294D01*
X109944866Y-71244866D01*
X109759294Y-71470986D01*
X109621401Y-71728966D01*
X109536487Y-72008889D01*
X109507815Y-72300000D01*
X109536487Y-72591111D01*
X109621401Y-72871034D01*
X109759294Y-73129014D01*
X109944866Y-73355134D01*
X110170986Y-73540706D01*
X110225791Y-73570000D01*
X110170986Y-73599294D01*
X109944866Y-73784866D01*
X109759294Y-74010986D01*
X109621401Y-74268966D01*
X109536487Y-74548889D01*
X109507815Y-74840000D01*
X109536487Y-75131111D01*
X109621401Y-75411034D01*
X109759294Y-75669014D01*
X109944866Y-75895134D01*
X110170986Y-76080706D01*
X110225791Y-76110000D01*
X110170986Y-76139294D01*
X109944866Y-76324866D01*
X109759294Y-76550986D01*
X109621401Y-76808966D01*
X109536487Y-77088889D01*
X109507815Y-77380000D01*
X109536487Y-77671111D01*
X109621401Y-77951034D01*
X109759294Y-78209014D01*
X109944866Y-78435134D01*
X110170986Y-78620706D01*
X110225791Y-78650000D01*
X110170986Y-78679294D01*
X109944866Y-78864866D01*
X109759294Y-79090986D01*
X109621401Y-79348966D01*
X109536487Y-79628889D01*
X109507815Y-79920000D01*
X109536487Y-80211111D01*
X109621401Y-80491034D01*
X109759294Y-80749014D01*
X109944866Y-80975134D01*
X110170986Y-81160706D01*
X110225791Y-81190000D01*
X110170986Y-81219294D01*
X109944866Y-81404866D01*
X109759294Y-81630986D01*
X109621401Y-81888966D01*
X109536487Y-82168889D01*
X109507815Y-82460000D01*
X109536487Y-82751111D01*
X109621401Y-83031034D01*
X109759294Y-83289014D01*
X109944866Y-83515134D01*
X110170986Y-83700706D01*
X110225791Y-83730000D01*
X110170986Y-83759294D01*
X109944866Y-83944866D01*
X109759294Y-84170986D01*
X109621401Y-84428966D01*
X109536487Y-84708889D01*
X109507815Y-85000000D01*
X109536487Y-85291111D01*
X109621401Y-85571034D01*
X109759294Y-85829014D01*
X109944866Y-86055134D01*
X110170986Y-86240706D01*
X110428966Y-86378599D01*
X110708889Y-86463513D01*
X110927050Y-86485000D01*
X111072950Y-86485000D01*
X111291111Y-86463513D01*
X111571034Y-86378599D01*
X111829014Y-86240706D01*
X112055134Y-86055134D01*
X112240706Y-85829014D01*
X112378599Y-85571034D01*
X112463513Y-85291111D01*
X112492185Y-85000000D01*
X112463513Y-84708889D01*
X112378599Y-84428966D01*
X112240706Y-84170986D01*
X112055134Y-83944866D01*
X111829014Y-83759294D01*
X111774209Y-83730000D01*
X111829014Y-83700706D01*
X112055134Y-83515134D01*
X112240706Y-83289014D01*
X112378599Y-83031034D01*
X112463513Y-82751111D01*
X112492185Y-82460000D01*
X112463513Y-82168889D01*
X112378599Y-81888966D01*
X112240706Y-81630986D01*
X112055134Y-81404866D01*
X111829014Y-81219294D01*
X111774209Y-81190000D01*
X111829014Y-81160706D01*
X112055134Y-80975134D01*
X112240706Y-80749014D01*
X112378599Y-80491034D01*
X112463513Y-80211111D01*
X112492185Y-79920000D01*
X112463513Y-79628889D01*
X112378599Y-79348966D01*
X112240706Y-79090986D01*
X112055134Y-78864866D01*
X111829014Y-78679294D01*
X111774209Y-78650000D01*
X111829014Y-78620706D01*
X112055134Y-78435134D01*
X112240706Y-78209014D01*
X112378599Y-77951034D01*
X112463513Y-77671111D01*
X112492185Y-77380000D01*
X112463513Y-77088889D01*
X112378599Y-76808966D01*
X112240706Y-76550986D01*
X112055134Y-76324866D01*
X111829014Y-76139294D01*
X111774209Y-76110000D01*
X111829014Y-76080706D01*
X112055134Y-75895134D01*
X112240706Y-75669014D01*
X112378599Y-75411034D01*
X112414808Y-75291668D01*
X112428412Y-75336511D01*
X112510590Y-75490257D01*
X112593468Y-75591244D01*
X112593471Y-75591247D01*
X112621184Y-75625015D01*
X112654951Y-75652727D01*
X115615000Y-78612777D01*
X115615001Y-84588948D01*
X115513527Y-84690422D01*
X115374541Y-84898429D01*
X115278805Y-85129555D01*
X115230000Y-85374916D01*
X115230000Y-85625084D01*
X115278805Y-85870445D01*
X115374541Y-86101571D01*
X115513527Y-86309578D01*
X115690422Y-86486473D01*
X115898429Y-86625459D01*
X116129555Y-86721195D01*
X116374916Y-86770000D01*
X116625084Y-86770000D01*
X116870445Y-86721195D01*
X117101571Y-86625459D01*
X117309578Y-86486473D01*
X117486473Y-86309578D01*
X117625459Y-86101571D01*
X117721195Y-85870445D01*
X117770000Y-85625084D01*
X117770000Y-85374916D01*
X117721195Y-85129555D01*
X117625459Y-84898429D01*
X117486473Y-84690422D01*
X117385000Y-84588949D01*
X117385000Y-78289664D01*
X117385454Y-78285057D01*
X118945445Y-79845049D01*
X118973158Y-79878817D01*
X119006926Y-79906530D01*
X119006928Y-79906532D01*
X119023339Y-79920000D01*
X119107916Y-79989411D01*
X119261662Y-80071589D01*
X119428485Y-80122195D01*
X119558498Y-80135000D01*
X119558508Y-80135000D01*
X119601974Y-80139281D01*
X119645440Y-80135000D01*
X122162250Y-80135000D01*
X122022629Y-80343957D01*
X121918225Y-80596011D01*
X121865000Y-80863589D01*
X121865000Y-81133422D01*
X121654956Y-81343466D01*
X121621183Y-81371183D01*
X121510589Y-81505942D01*
X121428411Y-81659688D01*
X121377805Y-81826511D01*
X121365000Y-81956524D01*
X121365000Y-81956531D01*
X121360719Y-82000000D01*
X121365000Y-82043469D01*
X121365001Y-88706521D01*
X121360719Y-88750000D01*
X121377805Y-88923490D01*
X121428412Y-89090313D01*
X121510590Y-89244059D01*
X121593468Y-89345046D01*
X121593471Y-89345049D01*
X121621184Y-89378817D01*
X121654951Y-89406529D01*
X122843470Y-90595049D01*
X122871183Y-90628817D01*
X122904951Y-90656530D01*
X122904953Y-90656532D01*
X122953529Y-90696397D01*
X123005941Y-90739411D01*
X123159687Y-90821589D01*
X123275903Y-90856843D01*
X123326509Y-90872195D01*
X123341306Y-90873652D01*
X123423436Y-90881741D01*
X123424201Y-90882886D01*
X123617114Y-91075799D01*
X123843957Y-91227371D01*
X124096011Y-91331775D01*
X124363589Y-91385000D01*
X124636411Y-91385000D01*
X124903989Y-91331775D01*
X125156043Y-91227371D01*
X125294286Y-91135000D01*
X125444249Y-91135000D01*
X125500000Y-91140491D01*
X125555751Y-91135000D01*
X125555752Y-91135000D01*
X125722499Y-91118577D01*
X125936447Y-91053676D01*
X126133623Y-90948284D01*
X126306449Y-90806449D01*
X126341996Y-90763135D01*
X130263141Y-86841991D01*
X130306449Y-86806449D01*
X130448284Y-86633623D01*
X130553676Y-86436447D01*
X130567365Y-86391320D01*
X130575799Y-86382886D01*
X130727371Y-86156043D01*
X130831775Y-85903989D01*
X130885000Y-85636411D01*
X130885000Y-85363589D01*
X130831775Y-85096011D01*
X130727371Y-84843957D01*
X130575799Y-84617114D01*
X130382886Y-84424201D01*
X130156043Y-84272629D01*
X129903989Y-84168225D01*
X129636411Y-84115000D01*
X129363589Y-84115000D01*
X129096011Y-84168225D01*
X128843957Y-84272629D01*
X128617114Y-84424201D01*
X128424201Y-84617114D01*
X128272629Y-84843957D01*
X128168225Y-85096011D01*
X128115000Y-85363589D01*
X128115000Y-85636411D01*
X128138801Y-85756067D01*
X125704305Y-88190564D01*
X125727371Y-88156043D01*
X125831775Y-87903989D01*
X125885000Y-87636411D01*
X125885000Y-87366578D01*
X127095050Y-86156529D01*
X127128817Y-86128817D01*
X127188781Y-86055752D01*
X127239410Y-85994060D01*
X127239411Y-85994059D01*
X127321589Y-85840313D01*
X127372195Y-85673490D01*
X127385000Y-85543477D01*
X127385000Y-85543467D01*
X127389281Y-85500001D01*
X127385000Y-85456535D01*
X127385000Y-81616578D01*
X127616578Y-81385000D01*
X127886411Y-81385000D01*
X128153989Y-81331775D01*
X128406043Y-81227371D01*
X128447006Y-81200000D01*
X141061928Y-81200000D01*
X141061928Y-83800000D01*
X141074188Y-83924482D01*
X141110498Y-84044180D01*
X141169463Y-84154494D01*
X141248815Y-84251185D01*
X141345506Y-84330537D01*
X141455820Y-84389502D01*
X141575518Y-84425812D01*
X141700000Y-84438072D01*
X144300000Y-84438072D01*
X144424482Y-84425812D01*
X144544180Y-84389502D01*
X144654494Y-84330537D01*
X144751185Y-84251185D01*
X144830537Y-84154494D01*
X144889502Y-84044180D01*
X144925812Y-83924482D01*
X144938072Y-83800000D01*
X144938072Y-81200000D01*
X144925812Y-81075518D01*
X144889502Y-80955820D01*
X144830537Y-80845506D01*
X144751185Y-80748815D01*
X144654494Y-80669463D01*
X144544180Y-80610498D01*
X144424482Y-80574188D01*
X144300000Y-80561928D01*
X141700000Y-80561928D01*
X141575518Y-80574188D01*
X141455820Y-80610498D01*
X141345506Y-80669463D01*
X141248815Y-80748815D01*
X141169463Y-80845506D01*
X141110498Y-80955820D01*
X141074188Y-81075518D01*
X141061928Y-81200000D01*
X128447006Y-81200000D01*
X128632886Y-81075799D01*
X128825799Y-80882886D01*
X128977371Y-80656043D01*
X129081775Y-80403989D01*
X129135000Y-80136411D01*
X129135000Y-79863589D01*
X129081775Y-79596011D01*
X128977371Y-79343957D01*
X128825799Y-79117114D01*
X128632886Y-78924201D01*
X128406043Y-78772629D01*
X128153989Y-78668225D01*
X127886411Y-78615000D01*
X127613589Y-78615000D01*
X127346011Y-78668225D01*
X127093957Y-78772629D01*
X126867114Y-78924201D01*
X126674201Y-79117114D01*
X126522629Y-79343957D01*
X126418225Y-79596011D01*
X126365000Y-79863589D01*
X126365000Y-80133422D01*
X125904951Y-80593471D01*
X125871184Y-80621183D01*
X125843471Y-80654951D01*
X125843468Y-80654954D01*
X125760590Y-80755941D01*
X125678412Y-80909687D01*
X125627805Y-81076510D01*
X125610719Y-81250000D01*
X125615001Y-81293479D01*
X125615000Y-85133421D01*
X124633422Y-86115000D01*
X124363589Y-86115000D01*
X124096011Y-86168225D01*
X123843957Y-86272629D01*
X123617114Y-86424201D01*
X123424201Y-86617114D01*
X123272629Y-86843957D01*
X123168225Y-87096011D01*
X123135000Y-87263043D01*
X123135000Y-82385000D01*
X123386411Y-82385000D01*
X123653989Y-82331775D01*
X123906043Y-82227371D01*
X124132886Y-82075799D01*
X124325799Y-81882886D01*
X124477371Y-81656043D01*
X124581775Y-81403989D01*
X124635000Y-81136411D01*
X124635000Y-80863589D01*
X124581775Y-80596011D01*
X124477371Y-80343957D01*
X124325799Y-80117114D01*
X124294248Y-80085563D01*
X124340313Y-80071589D01*
X124494059Y-79989411D01*
X124628817Y-79878817D01*
X124656534Y-79845044D01*
X126802145Y-77699433D01*
X126843957Y-77727371D01*
X127096011Y-77831775D01*
X127363589Y-77885000D01*
X127636411Y-77885000D01*
X127903989Y-77831775D01*
X128156043Y-77727371D01*
X128382886Y-77575799D01*
X128575799Y-77382886D01*
X128624888Y-77309419D01*
X141065000Y-77309419D01*
X141065000Y-77690581D01*
X141139361Y-78064419D01*
X141285225Y-78416566D01*
X141496987Y-78733491D01*
X141766509Y-79003013D01*
X142083434Y-79214775D01*
X142435581Y-79360639D01*
X142809419Y-79435000D01*
X143190581Y-79435000D01*
X143564419Y-79360639D01*
X143916566Y-79214775D01*
X144233491Y-79003013D01*
X144503013Y-78733491D01*
X144714775Y-78416566D01*
X144860639Y-78064419D01*
X144935000Y-77690581D01*
X144935000Y-77309419D01*
X144860639Y-76935581D01*
X144714775Y-76583434D01*
X144503013Y-76266509D01*
X144233491Y-75996987D01*
X143916566Y-75785225D01*
X143564419Y-75639361D01*
X143190581Y-75565000D01*
X142809419Y-75565000D01*
X142435581Y-75639361D01*
X142083434Y-75785225D01*
X141766509Y-75996987D01*
X141496987Y-76266509D01*
X141285225Y-76583434D01*
X141139361Y-76935581D01*
X141065000Y-77309419D01*
X128624888Y-77309419D01*
X128727371Y-77156043D01*
X128831775Y-76903989D01*
X128885000Y-76636411D01*
X128885000Y-76363589D01*
X128831775Y-76096011D01*
X128727371Y-75843957D01*
X128575799Y-75617114D01*
X128382886Y-75424201D01*
X128156043Y-75272629D01*
X127903989Y-75168225D01*
X127636411Y-75115000D01*
X127363589Y-75115000D01*
X127096011Y-75168225D01*
X126843957Y-75272629D01*
X126617114Y-75424201D01*
X126424201Y-75617114D01*
X126368553Y-75700398D01*
X126255941Y-75760589D01*
X126255939Y-75760590D01*
X126255940Y-75760590D01*
X126154953Y-75843468D01*
X126154951Y-75843470D01*
X126121183Y-75871183D01*
X126093470Y-75904951D01*
X124785000Y-77213421D01*
X124785000Y-77063589D01*
X124731775Y-76796011D01*
X124627371Y-76543957D01*
X124475799Y-76317114D01*
X124282886Y-76124201D01*
X124056043Y-75972629D01*
X123803989Y-75868225D01*
X123536411Y-75815000D01*
X123263589Y-75815000D01*
X122996011Y-75868225D01*
X122743957Y-75972629D01*
X122605714Y-76065000D01*
X122170131Y-76065000D01*
X122135000Y-76029869D01*
X122135000Y-71970132D01*
X122470132Y-71635000D01*
X136029869Y-71635000D01*
X137658009Y-73263141D01*
X137693551Y-73306449D01*
X137866377Y-73448284D01*
X138063553Y-73553676D01*
X138213934Y-73599294D01*
X138277500Y-73618577D01*
X138499999Y-73640491D01*
X138555751Y-73635000D01*
X141431178Y-73635000D01*
X141496987Y-73733491D01*
X141766509Y-74003013D01*
X142083434Y-74214775D01*
X142435581Y-74360639D01*
X142809419Y-74435000D01*
X143190581Y-74435000D01*
X143564419Y-74360639D01*
X143916566Y-74214775D01*
X144233491Y-74003013D01*
X144503013Y-73733491D01*
X144714775Y-73416566D01*
X144860639Y-73064419D01*
X144935000Y-72690581D01*
X144935000Y-72309419D01*
X144860639Y-71935581D01*
X144714775Y-71583434D01*
X144503013Y-71266509D01*
X144233491Y-70996987D01*
X143916566Y-70785225D01*
X143564419Y-70639361D01*
X143190581Y-70565000D01*
X142809419Y-70565000D01*
X142435581Y-70639361D01*
X142083434Y-70785225D01*
X141766509Y-70996987D01*
X141496987Y-71266509D01*
X141431178Y-71365000D01*
X138970132Y-71365000D01*
X137341996Y-69736865D01*
X137306449Y-69693551D01*
X137133623Y-69551716D01*
X136936447Y-69446324D01*
X136722499Y-69381423D01*
X136555752Y-69365000D01*
X136555751Y-69365000D01*
X136500000Y-69359509D01*
X136444249Y-69365000D01*
X122055752Y-69365000D01*
X122000000Y-69359509D01*
X121777501Y-69381423D01*
X121563553Y-69446324D01*
X121366377Y-69551716D01*
X121236856Y-69658011D01*
X121236855Y-69658012D01*
X121193551Y-69693551D01*
X121158013Y-69736855D01*
X120236859Y-70658009D01*
X120193552Y-70693551D01*
X120051717Y-70866377D01*
X120014265Y-70936446D01*
X119946324Y-71063554D01*
X119881423Y-71277502D01*
X119859509Y-71500000D01*
X119865001Y-71555761D01*
X119865000Y-76444248D01*
X119859509Y-76500000D01*
X119872944Y-76636411D01*
X119881423Y-76722498D01*
X119946324Y-76936446D01*
X120051716Y-77133623D01*
X120193551Y-77306449D01*
X120236865Y-77341996D01*
X120858004Y-77963135D01*
X120893551Y-78006449D01*
X121066377Y-78148284D01*
X121263553Y-78253676D01*
X121477501Y-78318577D01*
X121644248Y-78335000D01*
X121644257Y-78335000D01*
X121699999Y-78340490D01*
X121755741Y-78335000D01*
X122605714Y-78335000D01*
X122650612Y-78365000D01*
X119968554Y-78365000D01*
X115885000Y-74281447D01*
X115885000Y-74073685D01*
X116075799Y-73882886D01*
X116227371Y-73656043D01*
X116331775Y-73403989D01*
X116385000Y-73136411D01*
X116385000Y-72863589D01*
X116331775Y-72596011D01*
X116227371Y-72343957D01*
X116075799Y-72117114D01*
X115882886Y-71924201D01*
X115656043Y-71772629D01*
X115403989Y-71668225D01*
X115136411Y-71615000D01*
X114863589Y-71615000D01*
X114596011Y-71668225D01*
X114343957Y-71772629D01*
X114135000Y-71912250D01*
X114135000Y-67408580D01*
X114179991Y-67363589D01*
X124115000Y-67363589D01*
X124115000Y-67636411D01*
X124168225Y-67903989D01*
X124272629Y-68156043D01*
X124424201Y-68382886D01*
X124617114Y-68575799D01*
X124843957Y-68727371D01*
X125096011Y-68831775D01*
X125363589Y-68885000D01*
X125636411Y-68885000D01*
X125903989Y-68831775D01*
X126156043Y-68727371D01*
X126294286Y-68635000D01*
X141431178Y-68635000D01*
X141496987Y-68733491D01*
X141766509Y-69003013D01*
X142083434Y-69214775D01*
X142435581Y-69360639D01*
X142809419Y-69435000D01*
X143190581Y-69435000D01*
X143564419Y-69360639D01*
X143916566Y-69214775D01*
X144233491Y-69003013D01*
X144503013Y-68733491D01*
X144714775Y-68416566D01*
X144860639Y-68064419D01*
X144935000Y-67690581D01*
X144935000Y-67309419D01*
X144860639Y-66935581D01*
X144714775Y-66583434D01*
X144503013Y-66266509D01*
X144233491Y-65996987D01*
X143916566Y-65785225D01*
X143564419Y-65639361D01*
X143190581Y-65565000D01*
X142809419Y-65565000D01*
X142435581Y-65639361D01*
X142083434Y-65785225D01*
X141766509Y-65996987D01*
X141496987Y-66266509D01*
X141431178Y-66365000D01*
X126294286Y-66365000D01*
X126156043Y-66272629D01*
X125903989Y-66168225D01*
X125636411Y-66115000D01*
X125363589Y-66115000D01*
X125096011Y-66168225D01*
X124843957Y-66272629D01*
X124617114Y-66424201D01*
X124424201Y-66617114D01*
X124272629Y-66843957D01*
X124168225Y-67096011D01*
X124115000Y-67363589D01*
X114179991Y-67363589D01*
X115158581Y-66385000D01*
X120426315Y-66385000D01*
X120617114Y-66575799D01*
X120843957Y-66727371D01*
X121096011Y-66831775D01*
X121363589Y-66885000D01*
X121636411Y-66885000D01*
X121903989Y-66831775D01*
X122156043Y-66727371D01*
X122382886Y-66575799D01*
X122575799Y-66382886D01*
X122727371Y-66156043D01*
X122729503Y-66150895D01*
X122843957Y-66227371D01*
X123096011Y-66331775D01*
X123363589Y-66385000D01*
X123636411Y-66385000D01*
X123903989Y-66331775D01*
X124156043Y-66227371D01*
X124382886Y-66075799D01*
X124575799Y-65882886D01*
X124727371Y-65656043D01*
X124831775Y-65403989D01*
X124885000Y-65136411D01*
X124885000Y-64863589D01*
X124831775Y-64596011D01*
X124727371Y-64343957D01*
X124575799Y-64117114D01*
X124382886Y-63924201D01*
X124156043Y-63772629D01*
X123903989Y-63668225D01*
X123636411Y-63615000D01*
X123510000Y-63615000D01*
X123510000Y-62948685D01*
X123700799Y-62757886D01*
X123852371Y-62531043D01*
X123956775Y-62278989D01*
X124010000Y-62011411D01*
X124010000Y-61738589D01*
X123956775Y-61471011D01*
X123852371Y-61218957D01*
X123700799Y-60992114D01*
X123593685Y-60885000D01*
X130633422Y-60885000D01*
X131615000Y-61866579D01*
X131615000Y-62136411D01*
X131668225Y-62403989D01*
X131772629Y-62656043D01*
X131924201Y-62882886D01*
X132117114Y-63075799D01*
X132343957Y-63227371D01*
X132596011Y-63331775D01*
X132863589Y-63385000D01*
X133136411Y-63385000D01*
X133403989Y-63331775D01*
X133656043Y-63227371D01*
X133882886Y-63075799D01*
X134075799Y-62882886D01*
X134227371Y-62656043D01*
X134331775Y-62403989D01*
X134385000Y-62136411D01*
X134385000Y-61863589D01*
X134331775Y-61596011D01*
X134227371Y-61343957D01*
X134075799Y-61117114D01*
X133882886Y-60924201D01*
X133656043Y-60772629D01*
X133403989Y-60668225D01*
X133136411Y-60615000D01*
X132866579Y-60615000D01*
X131656534Y-59404956D01*
X131628817Y-59371183D01*
X131494059Y-59260589D01*
X131340313Y-59178411D01*
X131173490Y-59127805D01*
X131043477Y-59115000D01*
X131043469Y-59115000D01*
X131000000Y-59110719D01*
X130956531Y-59115000D01*
X120543465Y-59115000D01*
X120499999Y-59110719D01*
X120456533Y-59115000D01*
X120456523Y-59115000D01*
X120326510Y-59127805D01*
X120159687Y-59178411D01*
X120005941Y-59260589D01*
X120005939Y-59260590D01*
X120005940Y-59260590D01*
X119904953Y-59343468D01*
X119904951Y-59343470D01*
X119871183Y-59371183D01*
X119843470Y-59404951D01*
X119133421Y-60115000D01*
X118863589Y-60115000D01*
X118596011Y-60168225D01*
X118343957Y-60272629D01*
X118117114Y-60424201D01*
X117924201Y-60617114D01*
X117772629Y-60843957D01*
X117668225Y-61096011D01*
X117615000Y-61363589D01*
X117615000Y-61636411D01*
X117668225Y-61903989D01*
X117772629Y-62156043D01*
X117924201Y-62382886D01*
X118117114Y-62575799D01*
X118343957Y-62727371D01*
X118596011Y-62831775D01*
X118863589Y-62885000D01*
X119136411Y-62885000D01*
X119403989Y-62831775D01*
X119656043Y-62727371D01*
X119882886Y-62575799D01*
X120075799Y-62382886D01*
X120227371Y-62156043D01*
X120331775Y-61903989D01*
X120385000Y-61636411D01*
X120385000Y-61366579D01*
X120866579Y-60885000D01*
X121656315Y-60885000D01*
X121549201Y-60992114D01*
X121397629Y-61218957D01*
X121293225Y-61471011D01*
X121240000Y-61738589D01*
X121240000Y-62011411D01*
X121293225Y-62278989D01*
X121397629Y-62531043D01*
X121549201Y-62757886D01*
X121740000Y-62948685D01*
X121740001Y-64081521D01*
X121735719Y-64125000D01*
X121736699Y-64134949D01*
X121636411Y-64115000D01*
X121363589Y-64115000D01*
X121096011Y-64168225D01*
X120843957Y-64272629D01*
X120617114Y-64424201D01*
X120426315Y-64615000D01*
X114835467Y-64615000D01*
X114792001Y-64610719D01*
X114748535Y-64615000D01*
X114748525Y-64615000D01*
X114618512Y-64627805D01*
X114451689Y-64678411D01*
X114297943Y-64760589D01*
X114297941Y-64760590D01*
X114297942Y-64760590D01*
X114196955Y-64843468D01*
X114196953Y-64843470D01*
X114163185Y-64871183D01*
X114135472Y-64904951D01*
X112654956Y-66385468D01*
X112621183Y-66413185D01*
X112510589Y-66547944D01*
X112428411Y-66701690D01*
X112420621Y-66727371D01*
X112411502Y-66757432D01*
X112378599Y-66648966D01*
X112240706Y-66390986D01*
X112055134Y-66164866D01*
X111829014Y-65979294D01*
X111774209Y-65950000D01*
X111829014Y-65920706D01*
X112055134Y-65735134D01*
X112240706Y-65509014D01*
X112378599Y-65251034D01*
X112463513Y-64971111D01*
X112492185Y-64680000D01*
X112463513Y-64388889D01*
X112378599Y-64108966D01*
X112240706Y-63850986D01*
X112055134Y-63624866D01*
X112025313Y-63600393D01*
X112094180Y-63579502D01*
X112204494Y-63520537D01*
X112301185Y-63441185D01*
X112380537Y-63344494D01*
X112439502Y-63234180D01*
X112475812Y-63114482D01*
X112488072Y-62990000D01*
X112485000Y-62425750D01*
X112326250Y-62267000D01*
X111127000Y-62267000D01*
X111127000Y-62287000D01*
X110873000Y-62287000D01*
X110873000Y-62267000D01*
X109673750Y-62267000D01*
X109515000Y-62425750D01*
X109511928Y-62990000D01*
X109524188Y-63114482D01*
X109560498Y-63234180D01*
X109619463Y-63344494D01*
X109698815Y-63441185D01*
X109795506Y-63520537D01*
X109905820Y-63579502D01*
X109974687Y-63600393D01*
X109944866Y-63624866D01*
X109759294Y-63850986D01*
X109621401Y-64108966D01*
X109536487Y-64388889D01*
X109507815Y-64680000D01*
X107160000Y-64680000D01*
X107160000Y-61290000D01*
X109511928Y-61290000D01*
X109515000Y-61854250D01*
X109673750Y-62013000D01*
X110873000Y-62013000D01*
X110873000Y-60813750D01*
X111127000Y-60813750D01*
X111127000Y-62013000D01*
X112326250Y-62013000D01*
X112485000Y-61854250D01*
X112488072Y-61290000D01*
X112475812Y-61165518D01*
X112439502Y-61045820D01*
X112380537Y-60935506D01*
X112301185Y-60838815D01*
X112204494Y-60759463D01*
X112094180Y-60700498D01*
X111974482Y-60664188D01*
X111850000Y-60651928D01*
X111285750Y-60655000D01*
X111127000Y-60813750D01*
X110873000Y-60813750D01*
X110714250Y-60655000D01*
X110150000Y-60651928D01*
X110025518Y-60664188D01*
X109905820Y-60700498D01*
X109795506Y-60759463D01*
X109698815Y-60838815D01*
X109619463Y-60935506D01*
X109560498Y-61045820D01*
X109524188Y-61165518D01*
X109511928Y-61290000D01*
X107160000Y-61290000D01*
X107160000Y-57627000D01*
X147840001Y-57627000D01*
X147840000Y-133373000D01*
M02*
