M48
; DRILL file {KiCad 5.1.4-e60b266~84~ubuntu18.04.1} date lun 21 oct 2019 19:44:22 -03
; FORMAT={-:-/ absolute / inch / decimal}
; #@! TF.CreationDate,2019-10-21T19:44:22-03:00
; #@! TF.GenerationSoftware,Kicad,Pcbnew,5.1.4-e60b266~84~ubuntu18.04.1
; #@! TF.FileFunction,Plated,1,2,PTH
FMAT,2
INCH
T1C0.0276
T2C0.0315
T3C0.0354
T4C0.0394
T5C0.0512
%
G90
G05
T1
X4.5866Y-3.3661
T2
X4.4685Y-4.7441
X5.2165Y-3.5433
X5.2165Y-3.622
X4.9409Y-4.0354
X5.0197Y-4.0354
T3
X4.3488Y-3.937
X4.4488Y-3.937
T4
X4.3996Y-3.5138
X4.4685Y-3.0512
X4.498Y-4.5472
X4.5276Y-2.874
X4.5276Y-3.6614
X4.5276Y-4.2126
X4.5768Y-3.9567
X4.6063Y-4.1929
X4.6161Y-4.4783
X4.685Y-2.4213
X4.6949Y-4.2224
X4.7835Y-2.5787
X4.8278Y-2.436
X4.8425Y-4.4488
X4.8524Y-2.9134
X4.8524Y-3.189
X4.8583Y-3.0394
X4.8622Y-2.5591
X4.8917Y-4.9114
X4.9016Y-3.4449
X4.9016Y-3.5433
X4.9091Y-4.587
X4.9409Y-2.6575
X4.9705Y-4.685
X5.0197Y-2.9134
X5.0197Y-3.0118
X5.0295Y-3.1496
X5.0984Y-3.3661
X5.0984Y-3.937
X5.1722Y-4.5719
X5.2165Y-4.4071
X5.2264Y-4.0945
X5.2362Y-2.4409
X5.2953Y-4.8031
X5.315Y-4.0945
X5.3543Y-3.3071
X5.3642Y-2.9429
X5.3937Y-4.2323
X5.4232Y-2.5098
X4.3701Y-3.6614
X4.3701Y-3.7614
X4.3701Y-4.1732
X4.3701Y-4.2732
X4.3701Y-4.3732
X4.3701Y-4.4732
X4.3701Y-4.5732
X4.3701Y-4.6732
X4.3701Y-4.7732
X4.3701Y-4.8732
X4.3701Y-4.9732
X4.3701Y-5.0732
X4.3701Y-2.4465
X4.3701Y-2.5465
X4.3701Y-2.6465
X4.3701Y-2.7465
X4.3701Y-2.8465
X4.3701Y-2.9465
X4.3701Y-3.0465
X4.3701Y-3.1465
X4.3701Y-3.2465
X4.3701Y-3.3465
T5
X5.6299Y-4.252
X5.6299Y-4.4488
X5.6299Y-4.6457
X5.6299Y-2.6575
X5.6299Y-2.8543
X5.6299Y-3.0512
X5.6299Y-3.248
X5.6299Y-3.6614
X5.6299Y-3.8583
X5.6299Y-4.8425
T0
M30
